<svg width="16" height="16" viewBox="0 0 16 16" fill="none" xmlns="http://www.w3.org/2000/svg">
<path d="M14.6192 2.06934H1.38069C0.619363 2.06934 0 2.68916 0 3.45134V7.308C0 8.0701 0.619363 8.69 1.38069 8.69H7.17242V12.552H7.72416V8.69H8.27591V12.552H8.82766V8.69H14.6194C15.3807 8.69 16 8.0701 16 7.308V3.45134C15.9998 2.68916 15.3805 2.06934 14.6192 2.06934ZM15.4481 7.30793C15.4481 7.7656 15.0762 8.13818 14.6192 8.13818H1.38069C0.923629 8.13818 0.551748 7.7656 0.551748 7.30793V3.45134C0.551748 2.99366 0.923629 2.62108 1.38069 2.62108H14.6192C15.0762 2.62108 15.4481 2.99366 15.4481 3.45134V7.30793Z" fill="#656565"/>
<path d="M12.9693 6.75889H2.75859V7.31063H12.9693V6.75889Z" fill="#656565"/>
<path d="M14.3447 5.93134H1.65517V6.48309H14.3447V5.93134Z" fill="#656565"/>
<path d="M11.862 12.2761C11.7096 12.2761 11.5861 12.3995 11.5861 12.5519C11.5861 13.0083 11.2148 13.3795 10.7585 13.3795C10.3022 13.3795 9.931 13.0082 9.931 12.5519V9.51747H9.37925V12.5519C9.37925 13.3124 9.99808 13.9312 10.7585 13.9312C11.519 13.9312 12.1378 13.3124 12.1378 12.5519C12.1378 12.3995 12.0143 12.2761 11.862 12.2761Z" fill="#656565"/>
<path d="M6.06892 12.5519C6.06892 13.0083 5.69766 13.3795 5.24138 13.3795C4.78509 13.3795 4.41383 13.0082 4.41383 12.5519C4.41383 12.3995 4.29028 12.2761 4.13796 12.2761C3.98563 12.2761 3.86208 12.3995 3.86208 12.5519C3.86208 13.3124 4.4809 13.9312 5.24138 13.9312C6.00185 13.9312 6.62067 13.3124 6.62067 12.5519V9.51747H6.06892V12.5519Z" fill="#656565"/>
</svg>
