<svg width="7" height="13" viewBox="0 0 7 13" fill="none" xmlns="http://www.w3.org/2000/svg">
<path fill-rule="evenodd" clip-rule="evenodd" d="M6.85314 0.146877C6.8997 0.193317 6.93663 0.248486 6.96183 0.309224C6.98703 0.369962 7 0.435075 7 0.500835C7 0.566595 6.98703 0.631708 6.96183 0.692446C6.93663 0.753184 6.8997 0.808353 6.85314 0.854794L1.20758 6.50013L6.85314 12.1455C6.89962 12.192 6.93649 12.2471 6.96164 12.3079C6.98679 12.3686 6.99974 12.4337 6.99974 12.4994C6.99974 12.5652 6.98679 12.6303 6.96164 12.691C6.93649 12.7517 6.89962 12.8069 6.85314 12.8534C6.80667 12.8999 6.75149 12.9367 6.69077 12.9619C6.63004 12.9871 6.56496 13 6.49923 13C6.43351 13 6.36842 12.9871 6.3077 12.9619C6.24698 12.9367 6.1918 12.8999 6.14532 12.8534L0.146856 6.85409C0.100304 6.80765 0.0633714 6.75248 0.038171 6.69174C0.0129711 6.631 -2.87004e-07 6.56589 -2.8413e-07 6.50013C-2.81255e-07 6.43437 0.0129711 6.36926 0.038171 6.30852C0.0633714 6.24778 0.100304 6.19261 0.146856 6.14617L6.14532 0.146877C6.19176 0.100319 6.24692 0.0633803 6.30765 0.0381768C6.36838 0.0129733 6.43348 -2.47632e-08 6.49923 -2.18892e-08C6.56498 -1.90151e-08 6.63009 0.0129733 6.69082 0.0381768C6.75155 0.0633803 6.80671 0.100319 6.85314 0.146877Z" fill="#3C3B3B"/>
</svg>
