<svg width="16" height="16" viewBox="0 0 16 16" fill="none" xmlns="http://www.w3.org/2000/svg">
<path d="M2 11.6667V13M14 11.6667V13M2.66667 4C2.66667 3.73478 2.77202 3.48043 2.95956 3.29289C3.1471 3.10536 3.40145 3 3.66667 3H12.3333C12.5986 3 12.8529 3.10536 13.0404 3.29289C13.228 3.48043 13.3333 3.73478 13.3333 4V7.66667H2.66667V4Z" stroke="#515151" stroke-linecap="round" stroke-linejoin="round"/>
<path d="M9.66658 6H6.33325C6.06804 6 5.81368 6.10536 5.62614 6.29289C5.43861 6.48043 5.33325 6.73478 5.33325 7V7.66667H10.6666V7C10.6666 6.73478 10.5612 6.48043 10.3737 6.29289C10.1862 6.10536 9.9318 6 9.66658 6ZM1.33325 8.66667C1.33325 8.40145 1.43861 8.1471 1.62615 7.95956C1.81368 7.77202 2.06804 7.66667 2.33325 7.66667H13.6666C13.9318 7.66667 14.1862 7.77202 14.3737 7.95956C14.5612 8.1471 14.6666 8.40145 14.6666 8.66667V11.6667H1.33325V8.66667Z" stroke="#515151" stroke-linecap="round" stroke-linejoin="round"/>
</svg>
