<svg width="26" height="20" viewBox="0 0 26 20" fill="none" xmlns="http://www.w3.org/2000/svg">
<path d="M1.75 16.875V19.375M24.25 16.875V19.375M3 2.5C3 2.00272 3.19754 1.52581 3.54917 1.17417C3.90081 0.822544 4.37772 0.625 4.875 0.625H21.125C21.6223 0.625 22.0992 0.822544 22.4508 1.17417C22.8025 1.52581 23 2.00272 23 2.5V9.375H3V2.5Z" stroke="#515151" stroke-linecap="round" stroke-linejoin="round"/>
<path d="M16.125 6.25H9.875C9.37772 6.25 8.90081 6.44754 8.54917 6.79917C8.19754 7.15081 8 7.62772 8 8.125V9.375H18V8.125C18 7.62772 17.8025 7.15081 17.4508 6.79917C17.0992 6.44754 16.6223 6.25 16.125 6.25ZM0.5 11.25C0.5 10.7527 0.697544 10.2758 1.04917 9.92417C1.40081 9.57254 1.87772 9.375 2.375 9.375H23.625C24.1223 9.375 24.5992 9.57254 24.9508 9.92417C25.3025 10.2758 25.5 10.7527 25.5 11.25V16.875H0.5V11.25Z" stroke="#515151" stroke-linecap="round" stroke-linejoin="round"/>
</svg>
