<svg width="16" height="14" viewBox="0 0 16 14" fill="none" xmlns="http://www.w3.org/2000/svg">
<path d="M7.54904 4.54338L7.6135 4.48746C7.6174 4.48746 8.00021 4.2451 8.00021 3.81631C8.00021 3.6392 7.94162 3.55997 7.81076 3.40617L7.71506 3.28965C7.66037 3.21508 7.60568 3.13118 7.56076 3.02865L7.50998 2.8795C7.48264 2.78163 7.46701 2.66977 7.46701 2.54393C7.46701 2.0965 7.66623 1.8588 7.81076 1.6817C7.94162 1.52789 8.00021 1.45332 8.00021 1.27155C8.00021 0.847427 7.6174 0.605069 7.6135 0.600409C7.55881 0.567783 7.51779 0.516515 7.49436 0.455926C7.4592 0.367372 7.45725 0.264836 7.49631 0.171622C7.56271 0.0178176 7.72287 -0.0427719 7.85373 0.0317997C7.88107 0.0504427 8.53342 0.446604 8.53342 1.27155C8.53342 1.72364 8.3342 1.96134 8.18967 2.13379C8.10764 2.23166 8.05295 2.29691 8.02561 2.38081C8.00803 2.42741 8.00021 2.47868 8.00021 2.54393C8.00021 2.7257 8.05881 2.80027 8.18967 2.95408L8.31271 3.11254C8.3674 3.18711 8.42014 3.27567 8.4592 3.38286C8.50412 3.50404 8.53342 3.64386 8.53342 3.81631C8.53342 4.2451 8.35764 4.55737 8.18576 4.76244C8.02561 4.95353 7.8674 5.0514 7.85373 5.05606C7.81467 5.07937 7.77365 5.08869 7.73459 5.08869C7.67209 5.08869 7.61154 5.06539 7.56271 5.01878C7.53537 4.99081 7.51193 4.95819 7.49436 4.91624L7.47092 4.83235L7.46701 4.76244C7.46701 4.71583 7.47678 4.67388 7.49436 4.63194C7.50803 4.59931 7.52561 4.56669 7.54904 4.54338Z" fill="#6AC259"/>
<path d="M5.47873 5.12597C5.4885 5.12131 5.8674 4.87896 5.8674 4.45483C5.8674 4.27306 5.80881 4.19849 5.67795 4.04469L5.56662 3.90486C5.50803 3.82563 5.45139 3.72776 5.40842 3.61124L5.38303 3.53667L5.36154 3.44811L5.34592 3.36888L5.3342 3.18245C5.3342 2.3575 5.98654 1.95668 6.01389 1.9427C6.1467 1.86347 6.30686 1.92872 6.37131 2.08252C6.43771 2.24098 6.38498 2.43207 6.25217 2.51131C6.25217 2.51131 6.06467 2.62783 5.95139 2.84688C5.90256 2.94009 5.8674 3.05195 5.8674 3.18245C5.8674 3.35956 5.92404 3.43879 6.0549 3.5926C6.13498 3.68581 6.22873 3.79767 6.29904 3.95613C6.35764 4.08663 6.40061 4.24976 6.40061 4.45483C6.40061 4.90226 6.20334 5.22851 6.0217 5.42892C5.87131 5.59671 5.73068 5.68526 5.71896 5.69458L5.65061 5.72255L5.59982 5.72721C5.50217 5.72721 5.40842 5.66196 5.36154 5.5501C5.29514 5.3963 5.34982 5.20521 5.47873 5.12597Z" fill="#6AC259"/>
<path d="M10.133 4.45483C10.133 4.87896 9.75607 5.12131 9.74631 5.12597C9.68967 5.1586 9.6467 5.21453 9.62326 5.27978C9.59201 5.36367 9.59201 5.46155 9.62912 5.5501C9.64865 5.59671 9.67795 5.63865 9.71311 5.66662C9.7424 5.68992 9.77561 5.70857 9.80881 5.71789L9.8674 5.72721C9.90646 5.72721 9.94748 5.71789 9.98654 5.69458C10.0139 5.67594 10.6662 5.27512 10.6662 4.45483C10.6662 4.31967 10.6487 4.20781 10.6213 4.10994L10.5725 3.97011C10.5276 3.86758 10.4729 3.78369 10.4182 3.70911L10.3225 3.5926C10.1916 3.43879 10.133 3.35956 10.133 3.18245C10.133 2.75366 10.5197 2.51131 10.5197 2.51131C10.6506 2.43207 10.7053 2.24098 10.6389 2.08252L10.594 2.00795C10.5549 1.96134 10.5041 1.92872 10.4494 1.91473L10.3791 1.91007C10.3459 1.91473 10.3127 1.92406 10.2815 1.9427L10.2112 1.98931C10.1213 2.05456 9.96506 2.18972 9.83225 2.39479C9.70529 2.59054 9.59982 2.85154 9.59982 3.18245C9.59982 3.29897 9.6135 3.40151 9.63498 3.49006C9.65451 3.56929 9.68186 3.6392 9.71311 3.70445C9.74631 3.77436 9.78537 3.83495 9.82443 3.89088L9.94553 4.04469L10.0217 4.1379L10.0803 4.22645L10.1115 4.29637C10.1252 4.34297 10.133 4.39424 10.133 4.45483Z" fill="#6AC259"/>
<path d="M4.18381 7.93173C4.0842 7.7453 3.91623 7.63345 3.73264 7.63345C3.58615 7.63345 3.46701 7.49362 3.46701 7.31652C3.46701 7.14407 3.58615 6.99959 3.73459 6.99959C4.0217 6.99959 4.29123 7.13475 4.4885 7.37711C4.71311 7.28855 4.9592 7.30253 5.176 7.40041C5.23264 7.26059 5.31076 7.13475 5.40451 7.02755C5.59787 6.81316 5.85373 6.68266 6.13303 6.68266C6.37912 6.68266 6.6135 6.78053 6.801 6.9623C7.12326 6.65003 7.61154 6.59876 7.97482 6.83646C8.09006 6.66868 8.2385 6.53818 8.40646 6.45428C8.47287 6.42166 8.54123 6.39835 8.61154 6.37971C8.67209 6.36573 8.73654 6.36107 8.801 6.36107C9.29709 6.36107 9.71506 6.77121 9.8342 7.31652C10.0217 7.31186 10.2092 7.36778 10.3733 7.47498C10.4651 7.33982 10.5783 7.22796 10.7053 7.14873C10.8537 7.05086 11.0237 6.99959 11.1994 6.99959C11.5881 6.99959 11.9397 7.25593 12.1252 7.64743C12.4572 7.5915 12.7912 7.73132 13.0217 8.01097C13.4123 7.86648 13.8537 8.01563 14.1272 8.3745C14.2268 8.505 14.217 8.71007 14.1076 8.82659C14.0569 8.88252 13.9924 8.90582 13.9279 8.90582C13.8557 8.90582 13.7834 8.8732 13.7307 8.80329C13.5705 8.58889 13.301 8.52365 13.0725 8.67745C13.0139 8.71474 12.9455 8.72406 12.883 8.71007C12.842 8.70075 12.8049 8.67745 12.7717 8.64482L12.717 8.57025C12.5822 8.31391 12.3127 8.20205 12.0686 8.31857C11.9983 8.3512 11.9182 8.3512 11.8498 8.30925C11.7834 8.26731 11.7326 8.19273 11.7131 8.10884C11.6487 7.8292 11.4397 7.63345 11.1994 7.63345C10.9787 7.63345 10.7795 7.80123 10.7033 8.05291L10.6604 8.14147L10.594 8.21138C10.5666 8.23468 10.5373 8.24866 10.5041 8.25332C10.4143 8.27663 10.3205 8.23934 10.2561 8.16011C10.2248 8.11816 10.1916 8.08554 10.1565 8.05757C10.1076 8.01563 10.0569 7.983 10.0002 7.96902C9.94943 7.95504 9.89475 7.95038 9.83811 7.95504C9.78928 7.9597 9.7385 7.97368 9.68576 7.99698C9.60178 8.03427 9.50607 8.01563 9.43381 7.95038C9.36154 7.88513 9.32248 7.77793 9.32834 7.67073L9.3342 7.62879C9.3342 7.42371 9.25021 7.24194 9.12131 7.12543C9.07248 7.08348 9.01779 7.05086 8.95725 7.02755C8.90842 7.00891 8.85568 6.99959 8.801 6.99959C8.58029 6.99959 8.37912 7.16737 8.30295 7.41905L8.26584 7.49828L8.21506 7.55887C8.18381 7.58684 8.14475 7.61014 8.10373 7.61946C8.01389 7.64277 7.92014 7.60548 7.85568 7.52159C7.62912 7.23262 7.20334 7.27457 7.0217 7.60548C6.97287 7.69404 6.88889 7.73598 6.8049 7.73598C6.71701 7.74064 6.62717 7.69404 6.57834 7.60548C6.52951 7.51693 6.46311 7.44702 6.38693 7.39575L6.29318 7.34448C6.24045 7.32584 6.18771 7.31652 6.13303 7.31652C5.98654 7.31652 5.85373 7.39109 5.75803 7.50761C5.70529 7.57286 5.66232 7.65209 5.63498 7.74064C5.61936 7.79191 5.60959 7.84784 5.60568 7.90843C5.59787 8.03427 5.53342 8.1368 5.43771 8.18341C5.34201 8.23002 5.23459 8.20672 5.15842 8.12282C5.06271 8.01563 4.93967 7.9597 4.81271 7.95504C4.75803 7.95504 4.70139 7.96436 4.64865 7.983L4.53928 8.03893C4.41623 8.12282 4.25803 8.07621 4.18381 7.93173Z" fill="#6AC259"/>
<path fill-rule="evenodd" clip-rule="evenodd" d="M0.267793 9.54434C0.119355 9.54434 0.000214539 9.68883 0.000214539 9.86127C0.000214539 10.0803 0.0373239 10.2901 0.105683 10.4812C0.308808 11.0544 0.781465 11.4552 1.3342 11.4552H1.61545C1.74826 12.8814 2.76779 14 4.00021 14H12.0002C13.2326 14 14.2522 12.8814 14.385 11.4552H14.6662C14.8889 11.4552 15.0979 11.39 15.2834 11.2735C15.7092 11.0078 16.0002 10.4765 16.0002 9.86127C16.0002 9.68883 15.8811 9.54434 15.7326 9.54434H0.267793ZM14.6662 10.8167H14.133C13.9865 10.8167 13.8674 10.9612 13.8674 11.1337C13.8674 12.3641 13.0295 13.3615 12.0002 13.3615H4.00021C3.06076 13.3615 2.28146 12.5319 2.15256 11.4552H13.0666C13.2151 11.4552 13.3342 11.3108 13.3342 11.1337C13.3342 10.9612 13.2151 10.8167 13.0666 10.8167H1.3342C0.986543 10.8167 0.689668 10.5511 0.57834 10.1829H15.4221C15.3108 10.5511 15.0139 10.8167 14.6662 10.8167Z" fill="#6AC259"/>
<path d="M3.89475 8.88252L0.162324 6.97162C0.0275583 6.90637 -0.0368948 6.71528 0.0216989 6.55682C0.0802927 6.39369 0.236543 6.31912 0.371308 6.38903L4.10568 8.29993C4.24045 8.36518 4.30295 8.55627 4.24631 8.71474C4.22092 8.78465 4.176 8.84057 4.12326 8.8732C4.08615 8.8965 4.04318 8.91049 4.00021 8.91049C3.96506 8.91049 3.9299 8.90116 3.89475 8.88252Z" fill="#6AC259"/>
</svg>
