<svg width="30" height="30" viewBox="0 0 30 30" fill="none" xmlns="http://www.w3.org/2000/svg">
<path d="M27.03 20.6698H26.19L15.57 7.58979L17.01 5.81979C17.16 5.63979 17.13 5.33979 16.95 5.18979C16.77 5.03979 16.47 5.06979 16.32 5.24979L15 6.86979L13.68 5.24979C13.53 5.06979 13.23 5.03979 13.05 5.18979C12.87 5.33979 12.84 5.63979 12.99 5.81979L14.43 7.58979L3.81002 20.6698H2.97002C2.73002 20.6698 2.52002 20.8798 2.52002 21.1198V24.4798C2.52002 24.7198 2.73002 24.9298 2.97002 24.9298H4.02002H5.13002H6.48002H12.3H17.76H23.52H24.93H25.95H27.06C27.3 24.9298 27.51 24.7198 27.51 24.4798V21.1198C27.48 20.8498 27.27 20.6698 27.03 20.6698ZM24.42 21.1198V24.0298H23.73L17.16 10.9798L24.99 20.6398H24.87C24.63 20.6698 24.42 20.8498 24.42 21.1198ZM12.72 11.0998L6.18002 24.0298H5.55002V21.1198C5.55002 20.8798 5.34002 20.6698 5.10002 20.6698H4.95002L12.72 11.0998ZM4.02002 24.0298H3.42002V21.5698H4.65002V24.0298H4.02002ZM12.72 24.0298V21.0598C12.72 19.7998 13.74 18.7798 15 18.7798C16.26 18.7798 17.28 19.7998 17.28 21.0598V24.0298H12.72ZM18.18 24.0298V21.0598C18.18 19.3198 16.77 17.8798 15 17.8798C13.23 17.8798 11.82 19.2898 11.82 21.0598V24.0298H7.20002L14.97 8.60979L22.74 24.0298H18.18ZM26.58 24.0298H25.92H25.35V21.5698H26.58V24.0298Z" fill="#F37022"/>
</svg>
