<svg width="16" height="16" viewBox="0 0 16 16" fill="none" xmlns="http://www.w3.org/2000/svg">
<path d="M6.26634 10.666L7.99967 8.93268L9.73301 10.666L10.6663 9.73268L8.93301 7.99935L10.6663 6.26602L9.73301 5.33268L7.99967 7.06602L6.26634 5.33268L5.33301 6.26602L7.06634 7.99935L5.33301 9.73268L6.26634 10.666ZM2.66634 13.3327C2.29967 13.3327 1.9859 13.2022 1.72501 12.9413C1.46367 12.68 1.33301 12.366 1.33301 11.9993V3.99935C1.33301 3.63268 1.46367 3.3189 1.72501 3.05802C1.9859 2.79668 2.29967 2.66602 2.66634 2.66602H13.333C13.6997 2.66602 14.0137 2.79668 14.275 3.05802C14.5359 3.3189 14.6663 3.63268 14.6663 3.99935V11.9993C14.6663 12.366 14.5359 12.68 14.275 12.9413C14.0137 13.2022 13.6997 13.3327 13.333 13.3327H2.66634ZM2.66634 11.9993H13.333V3.99935H2.66634V11.9993ZM2.66634 11.9993V3.99935V11.9993Z" fill="#6AC259"/>
</svg>
