<svg width="30" height="30" viewBox="0 0 30 30" fill="none" xmlns="http://www.w3.org/2000/svg">
<path d="M6.23069 15.5361C4.91063 15.5361 3.83667 16.6101 3.83667 17.9302C3.83667 19.2502 4.91063 20.3241 6.23069 20.3241C7.55075 20.3241 8.62472 19.2502 8.62472 17.9302C8.62472 16.6101 7.55075 15.5361 6.23069 15.5361ZM6.23069 19.1289C5.56968 19.1289 5.03189 18.5911 5.03189 17.9302C5.03189 17.2691 5.56968 16.7314 6.23069 16.7314C6.89171 16.7314 7.4295 17.2691 7.4295 17.9302C7.42944 18.5911 6.89165 19.1289 6.23069 19.1289Z" fill="#F37022"/>
<path d="M23.7846 15.5361C22.4646 15.5361 21.3906 16.6101 21.3906 17.9302C21.3906 19.2502 22.4646 20.3241 23.7846 20.3241C25.1047 20.3241 26.1787 19.2502 26.1787 17.9302C26.1787 16.6101 25.1047 15.5361 23.7846 15.5361ZM23.7846 19.1289C23.1236 19.1289 22.5858 18.5911 22.5858 17.9302C22.5858 17.2691 23.1236 16.7314 23.7846 16.7314C24.4457 16.7314 24.9835 17.2691 24.9835 17.9302C24.9835 18.5912 24.4457 19.1289 23.7846 19.1289Z" fill="#F37022"/>
<path d="M15.8292 3.91109C15.8292 3.58103 15.5616 3.31348 15.2316 3.31348H6.21382C5.88382 3.31348 5.61621 3.58103 5.61621 3.91109C5.61621 4.24115 5.88382 4.5087 6.21382 4.5087H15.2316C15.5616 4.5087 15.8292 4.24115 15.8292 3.91109Z" fill="#F37022"/>
<path d="M17.2038 4.5087H18.1187C18.4487 4.5087 18.7163 4.24115 18.7163 3.91109C18.7163 3.58103 18.4487 3.31348 18.1187 3.31348H17.2038C16.8738 3.31348 16.6062 3.58103 16.6062 3.91109C16.6062 4.24115 16.8738 4.5087 17.2038 4.5087Z" fill="#F37022"/>
<path d="M18.0898 20.0039H11.9101C11.5801 20.0039 11.3125 20.2715 11.3125 20.6015C11.3125 20.9316 11.5801 21.1991 11.9101 21.1991H18.0898C18.4198 21.1991 18.6874 20.9316 18.6874 20.6015C18.6874 20.2715 18.4198 20.0039 18.0898 20.0039Z" fill="#F37022"/>
<path d="M29.4024 8.3861H26.7971V4.24186C26.7971 2.57925 25.4444 1.22656 23.7818 1.22656H6.21825C4.55564 1.22656 3.20295 2.57919 3.20295 4.24186V8.3861H0.59761C0.26761 8.3861 0 8.65365 0 8.98371V11.3035C0 11.6336 0.26761 11.9011 0.59761 11.9011H1.28546C0.785976 12.4888 0.483645 13.2491 0.483645 14.079V22.9412C0.483645 23.2713 0.751255 23.5389 1.08126 23.5389H1.92323V26.2301C1.92323 27.6322 3.06394 28.773 4.46606 28.773H4.96488C6.36699 28.773 7.50771 27.6322 7.50771 26.2301V23.5389H22.2427V26.2301C22.2427 27.6322 23.3834 28.773 24.7856 28.773H25.2843C26.6864 28.773 27.8272 27.6322 27.8272 26.2301V23.5389H28.9187C29.2487 23.5389 29.5164 23.2713 29.5164 22.9412V14.0789C29.5164 13.249 29.214 12.4888 28.7145 11.9011H29.4024C29.7324 11.9011 30 11.6335 30 11.3035V8.98365C30 8.65371 29.7324 8.3861 29.4024 8.3861ZM4.39817 4.24186C4.39817 3.2383 5.21462 2.42178 6.21825 2.42178H23.7818C24.7854 2.42178 25.6018 3.23824 25.6018 4.24186V10.7107H20.3502L23.2415 9.89501C23.5576 9.80017 23.7371 9.467 23.6422 9.15087C23.5474 8.83473 23.2143 8.65533 22.8981 8.75017L16.3631 10.7107H10.7611L13.6743 9.88401C13.9904 9.78917 14.1698 9.45601 14.075 9.13987C13.9801 8.82373 13.6471 8.64433 13.3309 8.73917L6.75932 10.7107H4.39817V4.24186ZM1.19522 10.7059V9.58132H3.19817V10.7059H1.19522ZM4.96488 27.5777H4.46606C3.72299 27.5777 3.11845 26.9731 3.11845 26.2301V23.5531H6.31243V26.2301H6.31249C6.31249 26.9731 5.70795 27.5777 4.96488 27.5777ZM25.2843 27.5777H24.7856C24.0424 27.5777 23.4379 26.9731 23.4379 26.2301V23.5531H26.6319V26.2301H26.6319C26.6319 26.9731 26.0274 27.5777 25.2843 27.5777ZM28.3211 22.3436H1.67892V14.0789C1.67892 12.8807 2.65381 11.9059 3.85195 11.9059H26.148C27.3463 11.9059 28.3211 12.8807 28.3211 14.0789V22.3436ZM28.8048 10.7058H26.8018V9.58126H28.8048V10.7058Z" fill="#F37022"/>
</svg>
