<svg width="16" height="16" viewBox="0 0 16 16" fill="none" xmlns="http://www.w3.org/2000/svg">
<path d="M8.50156 8.36719L10.7297 9.97812C10.7859 10.0172 10.7984 10.0953 10.7578 10.1531L10.3109 10.7625C10.2703 10.8172 10.1922 10.8297 10.1359 10.7891L7.55156 8.90469C7.51875 8.88125 7.5 8.84375 7.5 8.80313V4.5C7.5 4.43125 7.55625 4.375 7.625 4.375H8.37656C8.44531 4.375 8.50156 4.43125 8.50156 4.5V8.36719Z" fill="#ff5300"/>
<path fill-rule="evenodd" clip-rule="evenodd" d="M1 8C1 4.13438 4.13438 1 8 1C11.8656 1 15 4.13438 15 8C15 11.8656 11.8656 15 8 15C4.13438 15 1 11.8656 1 8ZM2.1875 8C2.1875 11.2094 4.79063 13.8125 8 13.8125C11.2094 13.8125 13.8125 11.2094 13.8125 8C13.8125 4.79063 11.2094 2.1875 8 2.1875C4.79063 2.1875 2.1875 4.79063 2.1875 8Z" fill="#ff5300"/>
</svg>
