<svg width="14" height="14" viewBox="0 0 14 14" fill="none" xmlns="http://www.w3.org/2000/svg">
<path d="M5.4001 1.39961C5.18792 1.39961 4.98444 1.48389 4.83441 1.63392C4.68438 1.78395 4.6001 1.98744 4.6001 2.19961V2.59961C4.6001 2.7057 4.55795 2.80744 4.48294 2.88245C4.40793 2.95747 4.30618 2.99961 4.2001 2.99961C4.09401 2.99961 3.99227 2.95747 3.91726 2.88245C3.84224 2.80744 3.8001 2.7057 3.8001 2.59961V2.19961C3.8001 1.77526 3.96867 1.3683 4.26873 1.06824C4.56878 0.76818 4.97575 0.599609 5.4001 0.599609H5.8001C5.90618 0.599609 6.00793 0.641752 6.08294 0.716767C6.15796 0.791781 6.2001 0.893523 6.2001 0.999609C6.2001 1.1057 6.15796 1.20744 6.08294 1.28245C6.00793 1.35747 5.90618 1.39961 5.8001 1.39961H5.4001ZM4.6001 8.59961C4.6001 8.81178 4.68438 9.01527 4.83441 9.16529C4.98444 9.31532 5.18792 9.39961 5.4001 9.39961H5.8001C5.90618 9.39961 6.00793 9.44175 6.08294 9.51677C6.15796 9.59178 6.2001 9.69352 6.2001 9.79961C6.2001 9.9057 6.15796 10.0074 6.08294 10.0825C6.00793 10.1575 5.90618 10.1996 5.8001 10.1996H5.4001C4.97575 10.1996 4.56878 10.031 4.26873 9.73098C3.96867 9.43092 3.8001 9.02396 3.8001 8.59961V8.19961C3.8001 8.09352 3.84224 7.99178 3.91726 7.91677C3.99227 7.84175 4.09401 7.79961 4.2001 7.79961C4.30618 7.79961 4.40793 7.84175 4.48294 7.91677C4.55795 7.99178 4.6001 8.09352 4.6001 8.19961V8.59961ZM4.6001 4.19961C4.6001 4.09352 4.55795 3.99178 4.48294 3.91677C4.40793 3.84175 4.30618 3.79961 4.2001 3.79961C4.09401 3.79961 3.99227 3.84175 3.91726 3.91677C3.84224 3.99178 3.8001 4.09352 3.8001 4.19961V6.59961C3.8001 6.7057 3.84224 6.80744 3.91726 6.88245C3.99227 6.95747 4.09401 6.99961 4.2001 6.99961C4.30618 6.99961 4.40793 6.95747 4.48294 6.88245C4.55795 6.80744 4.6001 6.7057 4.6001 6.59961V4.19961ZM11.8001 1.39961C12.0123 1.39961 12.2158 1.48389 12.3658 1.63392C12.5158 1.78395 12.6001 1.98744 12.6001 2.19961V2.59961C12.6001 2.7057 12.6422 2.80744 12.7173 2.88245C12.7923 2.95747 12.894 2.99961 13.0001 2.99961C13.1062 2.99961 13.2079 2.95747 13.2829 2.88245C13.358 2.80744 13.4001 2.7057 13.4001 2.59961V2.19961C13.4001 1.77526 13.2315 1.3683 12.9315 1.06824C12.6314 0.76818 12.2244 0.599609 11.8001 0.599609H11.4001C11.294 0.599609 11.1923 0.641752 11.1173 0.716767C11.0422 0.791781 11.0001 0.893523 11.0001 0.999609C11.0001 1.1057 11.0422 1.20744 11.1173 1.28245C11.1923 1.35747 11.294 1.39961 11.4001 1.39961H11.8001ZM11.8001 9.39961C12.0123 9.39961 12.2158 9.31532 12.3658 9.16529C12.5158 9.01527 12.6001 8.81178 12.6001 8.59961V8.19961C12.6001 8.09352 12.6422 7.99178 12.7173 7.91677C12.7923 7.84175 12.894 7.79961 13.0001 7.79961C13.1062 7.79961 13.2079 7.84175 13.2829 7.91677C13.358 7.99178 13.4001 8.09352 13.4001 8.19961V8.59961C13.4001 9.02396 13.2315 9.43092 12.9315 9.73098C12.6314 10.031 12.2244 10.1996 11.8001 10.1996H11.4001C11.294 10.1996 11.1923 10.1575 11.1173 10.0825C11.0422 10.0074 11.0001 9.9057 11.0001 9.79961C11.0001 9.69352 11.0422 9.59178 11.1173 9.51677C11.1923 9.44175 11.294 9.39961 11.4001 9.39961H11.8001ZM13.0001 3.79961C12.894 3.79961 12.7923 3.84175 12.7173 3.91677C12.6422 3.99178 12.6001 4.09352 12.6001 4.19961V6.59961C12.6001 6.7057 12.6422 6.80744 12.7173 6.88245C12.7923 6.95747 12.894 6.99961 13.0001 6.99961C13.1062 6.99961 13.2079 6.95747 13.2829 6.88245C13.358 6.80744 13.4001 6.7057 13.4001 6.59961V4.19961C13.4001 4.09352 13.358 3.99178 13.2829 3.91677C13.2079 3.84175 13.1062 3.79961 13.0001 3.79961ZM7.4001 0.599609C7.29401 0.599609 7.19227 0.641752 7.11725 0.716767C7.04224 0.791781 7.0001 0.893523 7.0001 0.999609C7.0001 1.1057 7.04224 1.20744 7.11725 1.28245C7.19227 1.35747 7.29401 1.39961 7.4001 1.39961H9.8001C9.90618 1.39961 10.0079 1.35747 10.0829 1.28245C10.158 1.20744 10.2001 1.1057 10.2001 0.999609C10.2001 0.893523 10.158 0.791781 10.0829 0.716767C10.0079 0.641752 9.90618 0.599609 9.8001 0.599609H7.4001ZM7.0001 9.79961C7.0001 9.69352 7.04224 9.59178 7.11725 9.51677C7.19227 9.44175 7.29401 9.39961 7.4001 9.39961H9.8001C9.90618 9.39961 10.0079 9.44175 10.0829 9.51677C10.158 9.59178 10.2001 9.69352 10.2001 9.79961C10.2001 9.9057 10.158 10.0074 10.0829 10.0825C10.0079 10.1575 9.90618 10.1996 9.8001 10.1996H7.4001C7.29401 10.1996 7.19227 10.1575 7.11725 10.0825C7.04224 10.0074 7.0001 9.9057 7.0001 9.79961ZM2.2001 3.79961H3.0001V4.59961H2.2001C1.98792 4.59961 1.78444 4.6839 1.63441 4.83392C1.48438 4.98395 1.4001 5.18744 1.4001 5.39961V10.5996C1.4001 11.13 1.61081 11.6388 1.98588 12.0138C2.36096 12.3889 2.86966 12.5996 3.4001 12.5996H8.6001C8.81227 12.5996 9.01575 12.5153 9.16578 12.3653C9.31581 12.2153 9.4001 12.0118 9.4001 11.7996V10.9996H10.2001V11.7996C10.2001 12.224 10.0315 12.6309 9.73147 12.931C9.43141 13.231 9.02444 13.3996 8.6001 13.3996H3.4001C2.65749 13.3996 1.9453 13.1046 1.4202 12.5795C0.895097 12.0544 0.600098 11.3422 0.600098 10.5996V5.39961C0.600098 4.97526 0.768669 4.5683 1.06873 4.26824C1.36878 3.96818 1.77575 3.79961 2.2001 3.79961Z" fill="#515151"/>
</svg>
