<svg width="14" height="12" viewBox="0 0 14 12" fill="none" xmlns="http://www.w3.org/2000/svg">
<path fill-rule="evenodd" clip-rule="evenodd" d="M0.645917 4.64592C0.692363 4.59935 0.747539 4.56241 0.808284 4.5372C0.869029 4.512 0.93415 4.49902 0.999917 4.49902C1.06568 4.49902 1.13081 4.512 1.19155 4.5372C1.2523 4.56241 1.30747 4.59935 1.35392 4.64592L6.99992 10.2929L12.6459 4.64592C12.7398 4.55203 12.8671 4.49929 12.9999 4.49929C13.1327 4.49929 13.26 4.55203 13.3539 4.64592C13.4478 4.7398 13.5005 4.86714 13.5005 4.99992C13.5005 5.13269 13.4478 5.26003 13.3539 5.35392L7.35392 11.3539C7.30747 11.4005 7.2523 11.4374 7.19155 11.4626C7.13081 11.4878 7.06568 11.5008 6.99992 11.5008C6.93415 11.5008 6.86903 11.4878 6.80828 11.4626C6.74754 11.4374 6.69236 11.4005 6.64592 11.3539L0.645917 5.35392C0.599354 5.30747 0.562411 5.2523 0.537205 5.19155C0.511998 5.13081 0.499023 5.06568 0.499023 4.99992C0.499023 4.93415 0.511998 4.86903 0.537205 4.80828C0.562411 4.74754 0.599354 4.69236 0.645917 4.64592Z" fill="#515151"/>
<path fill-rule="evenodd" clip-rule="evenodd" d="M0.645917 0.645917C0.692363 0.599354 0.747539 0.562411 0.808284 0.537205C0.869029 0.511998 0.93415 0.499023 0.999917 0.499023C1.06568 0.499023 1.13081 0.511998 1.19155 0.537205C1.2523 0.562411 1.30747 0.599354 1.35392 0.645917L6.99992 6.29292L12.6459 0.645917C12.6924 0.599429 12.7476 0.562553 12.8083 0.537394C12.8691 0.512235 12.9342 0.499286 12.9999 0.499286C13.0657 0.499286 13.1308 0.512235 13.1915 0.537394C13.2522 0.562553 13.3074 0.599429 13.3539 0.645917C13.4004 0.692405 13.4373 0.747594 13.4624 0.808334C13.4876 0.869073 13.5005 0.934173 13.5005 0.999917C13.5005 1.06566 13.4876 1.13076 13.4624 1.1915C13.4373 1.25224 13.4004 1.30743 13.3539 1.35392L7.35392 7.35392C7.30747 7.40048 7.2523 7.43742 7.19155 7.46263C7.13081 7.48784 7.06568 7.50081 6.99992 7.50081C6.93415 7.50081 6.86903 7.48784 6.80828 7.46263C6.74754 7.43742 6.69236 7.40048 6.64592 7.35392L0.645917 1.35392C0.599354 1.30747 0.562411 1.2523 0.537205 1.19155C0.511998 1.13081 0.499023 1.06568 0.499023 0.999917C0.499023 0.93415 0.511998 0.869029 0.537205 0.808284C0.562411 0.747538 0.599354 0.692363 0.645917 0.645917Z" fill="#515151"/>
</svg>
