<svg width="15" height="13" viewBox="0 0 15 13" fill="none" xmlns="http://www.w3.org/2000/svg">
<path fill-rule="evenodd" clip-rule="evenodd" d="M0.748848 5.06135C0.798197 5.01187 0.856821 4.97262 0.921362 4.94584C0.985904 4.91906 1.0551 4.90527 1.12497 4.90527C1.19485 4.90527 1.26404 4.91906 1.32858 4.94584C1.39313 4.97262 1.45175 5.01187 1.5011 5.06135L7.49997 11.0613L13.4988 5.06135C13.5986 4.96159 13.7339 4.90555 13.875 4.90555C14.016 4.90555 14.1513 4.96159 14.2511 5.06135C14.3509 5.1611 14.4069 5.2964 14.4069 5.43747C14.4069 5.57855 14.3509 5.71384 14.2511 5.8136L7.8761 12.1886C7.82675 12.2381 7.76813 12.2773 7.70358 12.3041C7.63904 12.3309 7.56985 12.3447 7.49997 12.3447C7.4301 12.3447 7.3609 12.3309 7.29636 12.3041C7.23182 12.2773 7.1732 12.2381 7.12385 12.1886L0.748848 5.8136C0.699375 5.76425 0.660123 5.70563 0.633341 5.64108C0.606559 5.57654 0.592773 5.50735 0.592773 5.43747C0.592773 5.3676 0.606559 5.2984 0.633341 5.23386C0.660123 5.16932 0.699375 5.1107 0.748848 5.06135Z" fill="white"/>
<path fill-rule="evenodd" clip-rule="evenodd" d="M0.748848 0.811348C0.798197 0.761875 0.856821 0.722623 0.921362 0.695841C0.985904 0.669059 1.0551 0.655273 1.12497 0.655273C1.19485 0.655273 1.26404 0.669059 1.32858 0.695841C1.39313 0.722623 1.45175 0.761875 1.5011 0.811348L7.49997 6.81129L13.4988 0.811348C13.5482 0.761955 13.6069 0.722774 13.6714 0.696042C13.736 0.669311 13.8051 0.655552 13.875 0.655552C13.9448 0.655552 14.014 0.669311 14.0785 0.696042C14.1431 0.722774 14.2017 0.761955 14.2511 0.811348C14.3005 0.860741 14.3397 0.91938 14.3664 0.983916C14.3931 1.04845 14.4069 1.11762 14.4069 1.18747C14.4069 1.25733 14.3931 1.32649 14.3664 1.39103C14.3397 1.45557 14.3005 1.5142 14.2511 1.5636L7.8761 7.9386C7.82675 7.98807 7.76813 8.02732 7.70358 8.0541C7.63904 8.08089 7.56985 8.09467 7.49997 8.09467C7.4301 8.09467 7.3609 8.08089 7.29636 8.0541C7.23182 8.02732 7.1732 7.98807 7.12385 7.9386L0.748848 1.5636C0.699375 1.51425 0.660123 1.45563 0.633341 1.39108C0.606559 1.32654 0.592773 1.25735 0.592773 1.18747C0.592773 1.1176 0.606559 1.0484 0.633341 0.983862C0.660123 0.919321 0.699375 0.860697 0.748848 0.811348Z" fill="white"/>
</svg>
