<svg width="40" height="40" viewBox="0 0 40 40" fill="none" xmlns="http://www.w3.org/2000/svg">
<rect width="40" height="40" fill="white"/>
<path d="M27.6989 8.77491C30.3544 10.8049 32.1624 13.748 32.7729 17.0343C33.3834 20.3207 32.753 23.7167 31.0037 26.565C29.2544 29.4133 26.5107 31.5113 23.3035 32.4531C20.0963 33.3949 16.6538 33.1133 13.6423 31.663C10.6308 30.2126 8.26439 27.6966 7.00117 24.6019C5.73795 21.5072 5.66773 18.0539 6.8041 14.9104C7.94048 11.7669 10.2026 9.15682 13.1527 7.58524C16.1028 6.01366 19.531 5.5924 22.7738 6.403L22.457 7.6703C19.528 6.93814 16.4315 7.31864 13.7669 8.73815C11.1023 10.1577 9.05901 12.5152 8.03259 15.3545C7.00618 18.1938 7.0696 21.313 8.21059 24.1082C9.35158 26.9035 11.489 29.176 14.2091 30.486C16.9292 31.796 20.0386 32.0503 22.9355 31.1997C25.8323 30.3491 28.3106 28.454 29.8906 25.8813C31.4706 23.3086 32.04 20.2413 31.4886 17.2729C30.9371 14.3045 29.3041 11.6463 26.9055 9.8127L27.6989 8.77491Z" fill="#656565"/>
<path d="M17.9398 11.2806C16.0616 11.6371 14.3622 12.6261 13.1244 14.0829C11.8865 15.5398 11.185 17.3767 11.1365 19.2878C11.088 21.1989 11.6955 23.069 12.8578 24.5867C14.0202 26.1045 15.6673 27.1784 17.525 27.6297C19.3827 28.081 21.3389 27.8825 23.068 27.0672C24.7972 26.2519 26.1949 24.8689 27.0287 23.1486C27.8624 21.4282 28.0818 19.4742 27.6503 17.6118C27.2189 15.7494 26.1626 14.091 24.6573 12.9125L23.833 13.9654C25.0977 14.9555 25.9852 16.3489 26.3477 17.9136C26.7102 19.4784 26.5259 21.1201 25.8254 22.5655C25.1249 24.0108 23.9505 25.1727 22.4978 25.8578C21.045 26.5428 19.4014 26.7096 17.8406 26.3304C16.2798 25.9512 14.896 25.0489 13.9194 23.7738C12.9428 22.4986 12.4324 20.9274 12.4732 19.3217C12.5139 17.716 13.1034 16.1727 14.1433 14.9487C15.1833 13.7247 16.6112 12.8938 18.1892 12.5942L17.9398 11.2806Z" fill="#656565"/>
<path d="M26.2236 12.03L24.4562 10.4891L26.2236 8.94818C26.3746 8.83366 26.3616 8.50048 26.044 8.47185H19.3285C19.1775 8.47185 19.0578 8.59419 19.0578 8.74255V19.0189C17.8396 19.0527 16.0775 19.3104 16.0775 20.1199C16.0775 20.9919 18.1207 21.2261 19.3311 21.2261C20.5388 21.2261 22.5847 20.9945 22.5847 20.1199C22.5847 19.3104 20.8226 19.0527 19.6044 19.0189V12.5064H26.0466C26.1976 12.5142 26.4631 12.2903 26.2236 12.03ZM22.0381 20.1225C21.96 20.2891 21.0724 20.6847 19.3311 20.6847C17.5611 20.6847 16.6735 20.2761 16.6189 20.1303C16.6709 19.9767 17.47 19.6019 19.0578 19.5629V20.0028C19.0578 20.1537 19.1801 20.2735 19.3285 20.2735C19.4795 20.2735 19.5992 20.1511 19.5992 20.0028V19.5629C21.1661 19.6019 21.9652 19.9663 22.0381 20.1225ZM19.6018 11.9624V9.01846H25.3204L23.8654 10.2861C23.6884 10.4683 23.8055 10.6427 23.8654 10.6947L25.3204 11.9624H19.6018Z" fill="#656565"/>
</svg>
