<svg width="30" height="30" viewBox="0 0 30 30" fill="none" xmlns="http://www.w3.org/2000/svg">
<g clip-path="url(#clip0_10296_4545)">
<path d="M19.3569 13.4277C18.4051 13.4277 17.4954 13.8155 16.8326 14.4756C16.1698 13.8155 15.2601 13.4277 14.3083 13.4277C12.5705 13.4277 11.1188 14.6757 10.8023 16.3224C10.4641 16.1685 10.093 16.0849 9.71282 16.0849C8.25707 16.0849 7.07275 17.2692 7.07275 18.7249C7.07275 19.4597 7.39657 20.151 7.96107 20.6215L10.5308 22.7629C10.7856 22.9752 11.1084 23.0922 11.4399 23.0922C11.7714 23.0922 12.0943 22.9753 12.3491 22.763L14.0698 21.329L15.6886 22.678C16.0091 22.945 16.4154 23.0922 16.8326 23.0922C17.2498 23.0922 17.6561 22.945 17.9766 22.678L21.7325 19.5481C22.4916 18.9155 22.927 17.9859 22.927 16.9978C22.9269 15.0292 21.3254 13.4277 19.3569 13.4277ZM14.1186 19.6612L13.6791 20.0275C13.6731 20.0323 13.6673 20.0372 13.6614 20.0422L11.5489 21.8026C11.4878 21.8535 11.3923 21.8535 11.3311 21.8026L8.76138 19.6612C8.48269 19.4289 8.32282 19.0876 8.32282 18.7249C8.32282 17.9584 8.94638 17.3349 9.71288 17.3349C10.2048 17.3349 10.6503 17.587 10.9047 18.0093C11.0178 18.197 11.2209 18.3118 11.4401 18.3118C11.6559 18.3118 11.8561 18.2005 11.9702 18.0179C11.9781 18.006 11.9856 17.9937 11.9927 17.9814C12.2496 17.5759 12.6863 17.3349 13.1672 17.3349C13.9336 17.3349 14.5572 17.9585 14.5572 18.7249C14.5572 19.0877 14.3973 19.429 14.1186 19.6612ZM20.9322 18.5878L17.1764 21.7176C17.08 21.7979 16.9579 21.8421 16.8326 21.8421C16.7073 21.8421 16.5851 21.7979 16.4888 21.7176L15.0419 20.5119C15.5302 20.047 15.8072 19.4046 15.8072 18.7249C15.8072 17.2692 14.6229 16.0849 13.1671 16.0849C12.7916 16.0849 12.4249 16.1665 12.0902 16.3168C12.3819 15.3688 13.2659 14.6777 14.3083 14.6777C15.1293 14.6777 15.8728 15.0983 16.2973 15.8029C16.4104 15.9906 16.6135 16.1054 16.8326 16.1054C17.0518 16.1054 17.2549 15.9906 17.368 15.8029C17.7924 15.0984 18.536 14.6777 19.357 14.6777C20.6363 14.6777 21.6771 15.7184 21.6771 16.9977C21.6769 17.6138 21.4055 18.1934 20.9322 18.5878Z" fill="#F37022"/>
<path d="M26.875 7.5H24.375V1.875C24.375 0.841125 23.5339 0 22.5 0H7.5C6.46613 0 5.625 0.841125 5.625 1.875V7.5H3.125C1.40188 7.5 0 8.90187 0 10.625V26.875C0 28.5981 1.40188 30 3.125 30H26.875C28.5981 30 30 28.5981 30 26.875V10.625C30 8.90187 28.5981 7.5 26.875 7.5ZM6.875 1.875C6.875 1.53038 7.15538 1.25 7.5 1.25H22.5C22.8446 1.25 23.125 1.53038 23.125 1.875V7.5H6.875V1.875ZM1.25 10.625C1.25 9.59113 2.09113 8.75 3.125 8.75H4.375V10C4.375 11.0339 3.53387 11.875 2.5 11.875H1.25V10.625ZM4.375 28.75H3.125C2.09113 28.75 1.25 27.9089 1.25 26.875V25.625H2.5C3.53387 25.625 4.375 26.4661 4.375 27.5V28.75ZM28.75 26.875C28.75 27.9089 27.9089 28.75 26.875 28.75H25.625V27.5C25.625 26.4661 26.4661 25.625 27.5 25.625H28.75V26.875ZM28.75 24.375H27.5C25.7769 24.375 24.375 25.7769 24.375 27.5V28.75H5.625V27.5C5.625 25.7769 4.22312 24.375 2.5 24.375H1.25V13.125H2.5C4.22312 13.125 5.625 11.7231 5.625 10V8.75H24.375V10C24.375 11.7231 25.7769 13.125 27.5 13.125H28.75V24.375ZM28.75 11.875H27.5C26.4661 11.875 25.625 11.0339 25.625 10V8.75H26.875C27.9089 8.75 28.75 9.59113 28.75 10.625V11.875Z" fill="#F37022"/>
</g>
<defs>
<clipPath id="clip0_10296_4545">
<rect width="30" height="30" fill="white"/>
</clipPath>
</defs>
</svg>
