<svg width="30" height="30" viewBox="0 0 30 30" fill="none" xmlns="http://www.w3.org/2000/svg">
<path d="M8.90625 14.0625C9.18438 14.0625 9.45626 14.145 9.68752 14.2995C9.91878 14.454 10.099 14.6736 10.2055 14.9306C10.3119 15.1876 10.3397 15.4703 10.2855 15.7431C10.2312 16.0159 10.0973 16.2665 9.90062 16.4631C9.70395 16.6598 9.45338 16.7937 9.1806 16.848C8.90781 16.9022 8.62506 16.8744 8.3681 16.768C8.11114 16.6615 7.89152 16.4813 7.737 16.25C7.58248 16.0188 7.5 15.7469 7.5 15.4688C7.5 15.0958 7.64816 14.7381 7.91188 14.4744C8.17561 14.2107 8.53329 14.0625 8.90625 14.0625ZM8.90625 12.1875C8.25728 12.1875 7.62289 12.3799 7.08329 12.7405C6.54369 13.101 6.12312 13.6135 5.87477 14.2131C5.62642 14.8126 5.56144 15.4724 5.68805 16.1089C5.81466 16.7454 6.12717 17.3301 6.58606 17.7889C7.04495 18.2478 7.62961 18.5603 8.26611 18.687C8.90261 18.8136 9.56236 18.7486 10.1619 18.5002C10.7615 18.2519 11.274 17.8313 11.6345 17.2917C11.9951 16.7521 12.1875 16.1177 12.1875 15.4688C12.1875 14.5985 11.8418 13.7639 11.2264 13.1486C10.6111 12.5332 9.77649 12.1875 8.90625 12.1875Z" fill="#F47625"/>
<path d="M23.4375 13.1225H15.9375C15.4402 13.1225 14.9633 13.32 14.6117 13.6717C14.26 14.0233 14.0625 14.5002 14.0625 14.9975V20.6225H3.75V9.935L15 3.87875L26.7469 10.1975L27.6281 8.5475L15.4406 1.985C15.305 1.91277 15.1537 1.875 15 1.875C14.8463 1.875 14.695 1.91277 14.5594 1.985L2.37187 8.5475C2.22218 8.62721 2.0969 8.74604 2.0094 8.89132C1.9219 9.0366 1.87545 9.2029 1.875 9.3725V28.1225H3.75V22.4975H26.25V28.1225H28.125V17.81C28.125 16.5668 27.6311 15.3745 26.7521 14.4954C25.873 13.6164 24.6807 13.1225 23.4375 13.1225ZM15.9375 20.6225V14.9975H23.4375C24.1834 14.9975 24.8988 15.2938 25.4262 15.8213C25.9537 16.3487 26.25 17.0641 26.25 17.81V20.6225H15.9375Z" fill="#F47625"/>
</svg>
