<svg width="20" height="20" viewBox="0 0 20 20" fill="none" xmlns="http://www.w3.org/2000/svg">
<path d="M14.6277 13.7042C14.6906 13.4828 14.9211 13.3545 15.1425 13.4174C15.3638 13.4804 15.4922 13.7109 15.4292 13.9322C15.2267 14.644 14.661 15.2018 13.93 15.3845L7.1571 17.0777C6.0122 17.3422 4.88912 16.6501 4.62908 15.5232L2.87874 7.93842C2.62334 6.83168 3.30152 5.72431 4.40344 5.44883L5.97763 5.05528C6.20087 4.99947 6.4271 5.13521 6.48291 5.35845C6.53872 5.5817 6.40299 5.80792 6.17974 5.86374L4.60555 6.25728C3.9444 6.42257 3.53749 7.08699 3.69073 7.75104L5.44107 15.3359C5.59709 16.0119 6.27087 16.4272 6.96223 16.2675L13.7279 14.5761C14.1668 14.4663 14.506 14.1319 14.6277 13.7042ZM16.6667 11.0774V4.58333C16.6667 3.89298 16.1071 3.33333 15.4167 3.33333H7.91672C7.22636 3.33333 6.66672 3.89298 6.66672 4.58333V9.41074L8.45543 7.62204C8.61814 7.45932 8.88196 7.45932 9.04468 7.62204L12.1365 10.7138L14.3523 9.23665C14.5175 9.12647 14.7376 9.14826 14.878 9.28871L16.6667 11.0774ZM16.6563 12.2455L14.5303 10.1195L12.3145 11.5967C12.1493 11.7069 11.9292 11.6851 11.7888 11.5446L8.75005 8.50592L6.66672 10.5893V12.0833C6.66672 12.7737 7.22636 13.3333 7.91672 13.3333H15.4167C16.0521 13.3333 16.5768 12.8592 16.6563 12.2455ZM7.91672 2.5H15.4167C16.5673 2.5 17.5001 3.43274 17.5001 4.58333V12.0833C17.5001 13.2339 16.5673 14.1667 15.4167 14.1667H7.91672C6.76613 14.1667 5.83339 13.2339 5.83339 12.0833V4.58333C5.83339 3.43274 6.76613 2.5 7.91672 2.5ZM13.3334 4.16667H15.0001C15.4603 4.16667 15.8334 4.53976 15.8334 5V6.66667C15.8334 7.1269 15.4603 7.5 15.0001 7.5H13.3334C12.8731 7.5 12.5001 7.1269 12.5001 6.66667V5C12.5001 4.53976 12.8731 4.16667 13.3334 4.16667ZM13.3334 5V6.66667H15.0001V5H13.3334Z" fill="#3C3B3B"/>
</svg>
