<svg width="10" height="16" viewBox="0 0 10 16" fill="none" xmlns="http://www.w3.org/2000/svg">
<path fill-rule="evenodd" clip-rule="evenodd" d="M5.00008 3C3.61937 3 2.50008 4.11929 2.50008 5.5C2.50008 6.88071 3.61937 8 5.00008 8C6.38079 8 7.50008 6.88071 7.50008 5.5C7.50008 4.11929 6.38079 3 5.00008 3ZM3.50008 5.5C3.50008 4.67157 4.17165 4 5.00008 4C5.82851 4 6.50008 4.67157 6.50008 5.5C6.50008 6.32843 5.82851 7 5.00008 7C4.17165 7 3.50008 6.32843 3.50008 5.5Z" fill="#ff5300"/>
<path fill-rule="evenodd" clip-rule="evenodd" d="M4.5759 15.2649C4.57593 15.265 4.57596 15.265 4.99996 15L4.5759 15.2649C4.66727 15.4111 4.82756 15.5 4.99996 15.5C5.17235 15.5 5.33259 15.4112 5.42396 15.265L4.99996 15C5.42396 15.265 5.42392 15.2651 5.42396 15.265L5.43169 15.2526L5.45346 15.2175C5.4725 15.1868 5.50047 15.1415 5.53651 15.0827C5.60858 14.9653 5.71295 14.7939 5.84277 14.5776C6.10235 14.1449 6.46397 13.5317 6.87274 12.8085C7.68874 11.3648 8.69898 9.47157 9.45953 7.69696C11.109 3.8481 8.33809 0.5 4.99996 0.5C1.66182 0.5 -1.10913 3.8481 0.540385 7.69696C1.30093 9.47157 2.31118 11.3648 3.12718 12.8085C3.53595 13.5317 3.89756 14.1449 4.15715 14.5776C4.28697 14.7939 4.39134 14.9653 4.46341 15.0827C4.49945 15.1415 4.52741 15.1868 4.54646 15.2175L4.56822 15.2526L4.5759 15.2649ZM1.45953 7.30304C0.109041 4.1519 2.33809 1.5 4.99996 1.5C7.66182 1.5 9.89087 4.1519 8.54039 7.30304C7.80093 9.02843 6.81118 10.8852 6.00218 12.3165C5.60611 13.0172 5.25488 13.6133 4.99996 14.0386C4.74503 13.6133 4.39381 13.0172 3.99774 12.3165C3.18874 10.8852 2.19898 9.02843 1.45953 7.30304Z" fill="#ff5300"/>
</svg>
