<svg width="16" height="16" viewBox="0 0 16 16" fill="none" xmlns="http://www.w3.org/2000/svg">
<path d="M10.0395 3.27065V14.1673M5.94947 12.7306V1.86732M5.93613 1.83398L2.0828 3.15065C2.01008 3.17018 1.94611 3.21376 1.90132 3.27429C1.85653 3.33482 1.83356 3.40873 1.83613 3.48398V13.8173C1.83613 13.9057 1.87125 13.9905 1.93376 14.053C1.99628 14.1155 2.08106 14.1507 2.16947 14.1507H2.27947L5.94613 12.7306L10.0461 14.1673L13.8995 12.834C13.9722 12.8145 14.0362 12.7709 14.0809 12.7103C14.1257 12.6498 14.1487 12.5759 14.1461 12.5007V2.16732C14.1461 2.07891 14.111 1.99413 14.0485 1.93162C13.986 1.8691 13.9012 1.83398 13.8128 1.83398L13.7028 1.85732L10.0361 3.25398L5.93613 1.83398Z" stroke="#F37022" stroke-linecap="round" stroke-linejoin="round"/>
</svg>
