<svg width="14" height="16" viewBox="0 0 14 16" fill="none" xmlns="http://www.w3.org/2000/svg">
<path d="M13.0343 4.6127L10.9124 2.7627L13.0343 0.912695C13.2155 0.775195 13.1999 0.375195 12.8187 0.34082H4.75615C4.5749 0.34082 4.43115 0.487695 4.43115 0.66582V13.0033C2.96865 13.0439 0.853027 13.3533 0.853027 14.3252C0.853027 15.3721 3.30615 15.6533 4.75928 15.6533C6.20928 15.6533 8.66553 15.3752 8.66553 14.3252C8.66553 13.3533 6.5499 13.0439 5.0874 13.0033V5.18457H12.8218C13.003 5.19395 13.3218 4.9252 13.0343 4.6127ZM8.00928 14.3283C7.91553 14.5283 6.8499 15.0033 4.75928 15.0033C2.63428 15.0033 1.56865 14.5127 1.50303 14.3377C1.56553 14.1533 2.5249 13.7033 4.43115 13.6564V14.1846C4.43115 14.3658 4.57803 14.5096 4.75615 14.5096C4.9374 14.5096 5.08115 14.3627 5.08115 14.1846V13.6564C6.9624 13.7033 7.92178 14.1408 8.00928 14.3283ZM5.08428 4.53145V0.99707H11.9499L10.203 2.51895C9.99053 2.7377 10.1312 2.94707 10.203 3.00957L11.9499 4.53145H5.08428Z" fill="#F37022"/>
</svg>
