<svg width="30" height="30" viewBox="0 0 30 30" fill="none" xmlns="http://www.w3.org/2000/svg">
<path d="M14.2766 11.0524C14.0296 11.1759 13.9291 11.4759 14.0526 11.7229C14.1406 11.8983 14.3171 11.9994 14.5006 11.9994C14.5756 11.9994 14.6521 11.9824 14.7236 11.9469C14.7756 11.9204 16.0001 11.2934 16.0001 9.99939C16.0001 9.2924 15.6266 8.9184 15.3536 8.64588C15.1086 8.4009 15.0001 8.28037 15.0001 7.99936C15.0001 7.71834 15.1086 7.59787 15.3536 7.35284C15.6266 7.08032 16.0001 6.70631 16.0001 5.99932C16.0001 4.70535 14.7756 4.07834 14.7236 4.05232C14.4791 3.93033 14.1806 4.02882 14.0561 4.27334C13.9311 4.51884 14.0296 4.81884 14.2736 4.94534C14.2806 4.94886 15.0001 5.32831 15.0001 5.99932C15.0001 6.28034 14.8916 6.40081 14.6466 6.64585C14.3736 6.91836 14.0001 7.29237 14.0001 7.99936C14.0001 8.70635 14.3736 9.08035 14.6466 9.35287C14.8916 9.59785 15.0001 9.71837 15.0001 9.99939C15.0001 10.6704 14.2806 11.0499 14.2766 11.0524Z" fill="#F37022"/>
<path d="M11 10.9994C11 11.6659 10.2905 12.0444 10.2735 12.0534C10.029 12.1779 9.92953 12.4769 10.0525 12.7229C10.1405 12.8984 10.317 12.9994 10.5005 12.9994C10.5755 12.9994 10.652 12.9824 10.7235 12.9469C10.7755 12.9204 12 12.2934 12 10.9994C12 10.2924 11.6266 9.91843 11.3535 9.64591C11.1085 9.40093 11 9.28041 11 8.99939C11 8.32838 11.719 7.94887 11.7235 7.94688C11.9705 7.82336 12.0711 7.5229 11.947 7.27586C11.824 7.02889 11.524 6.92788 11.2765 7.05239C11.2246 7.0784 10 7.70541 10 8.99939C10 9.70638 10.3735 10.0804 10.6465 10.3529C10.8916 10.5979 11 10.7184 11 10.9994Z" fill="#F37022"/>
<path d="M19 10.999C19 11.6655 18.291 12.044 18.274 12.053C18.029 12.1775 17.9295 12.4765 18.0525 12.7225C18.1405 12.8979 18.317 12.999 18.5005 12.999C18.5755 12.999 18.652 12.982 18.7235 12.9465C18.776 12.92 20 12.293 20 10.999C20 10.292 19.6266 9.918 19.3535 9.64548C19.1085 9.4005 19 9.27997 19 8.99896C19 8.32794 19.719 7.94843 19.7235 7.94644C19.9705 7.82293 20.071 7.52246 19.947 7.27543C19.823 7.02846 19.523 6.92844 19.2765 7.05195C19.224 7.07797 18 7.70498 18 8.99896C18 9.70595 18.3735 10.0799 18.6465 10.3525C18.8914 10.5974 19 10.718 19 10.999Z" fill="#F37022"/>
<path d="M7.00011 15.9989C7.34212 15.9989 7.65659 16.1739 7.84262 16.4669C7.98512 16.6913 8.27862 16.7649 8.51164 16.6339C8.90363 16.4118 9.35914 16.4774 9.67215 16.7653C9.81412 16.8954 10.0177 16.9319 10.1961 16.8613C10.3742 16.7898 10.4961 16.6228 10.5092 16.4308C10.5451 15.9084 10.9801 15.4988 11.5001 15.4988C11.8357 15.4988 12.1471 15.6668 12.3332 15.9478C12.5187 16.2279 12.9817 16.2279 13.1667 15.9478C13.5077 15.4343 14.3031 15.3623 14.7306 15.8223C14.8491 15.9498 15.0247 16.0073 15.1956 15.9723C15.3656 15.9384 15.5067 15.8184 15.5667 15.6553C15.7111 15.2624 16.0861 14.9989 16.5002 14.9989C17.0512 14.9989 17.5002 15.4473 17.4997 15.9863C17.4981 15.9968 17.4927 16.0448 17.4916 16.0554C17.4786 16.2243 17.5522 16.3889 17.6876 16.4914C17.8221 16.5944 18.0011 16.6218 18.1601 16.5638C18.5926 16.4079 18.9621 16.5323 19.2306 16.8224C19.3491 16.9499 19.5251 17.0069 19.6956 16.9724C19.8656 16.9384 20.0066 16.8184 20.0666 16.6554C20.2111 16.2624 20.5861 15.9989 21.0001 15.9989C21.4472 15.9989 21.8421 16.3034 21.9601 16.7394C21.9971 16.8774 22.0922 16.9929 22.2197 17.0564C22.3472 17.1204 22.4962 17.1259 22.6292 17.0729C23.0841 16.8894 23.5897 17.0669 23.8426 17.4664C23.9846 17.6914 24.2786 17.7659 24.5111 17.6339C24.9406 17.3919 25.4441 17.4969 25.7441 17.8309C25.8426 17.9409 25.9796 17.9969 26.1161 17.9969C26.2356 17.9969 26.3551 17.9549 26.4501 17.8689C26.6556 17.6844 26.6731 17.3684 26.4886 17.163C25.9761 16.5924 25.1461 16.3579 24.4156 16.59C23.9836 16.1525 23.3551 15.931 22.7362 16.017C22.3876 15.4 21.7286 14.999 21.0001 14.999C20.3907 14.999 19.8232 15.2825 19.4502 15.743C19.1417 15.5745 18.7912 15.4875 18.4372 15.5C18.2151 14.638 17.4306 13.999 16.5002 13.999C15.8911 13.999 15.3247 14.2815 14.9517 14.741C14.2702 14.3675 13.3567 14.451 12.7502 14.9385C12.4002 14.657 11.9617 14.499 11.5002 14.499C10.7177 14.499 10.0312 14.959 9.70619 15.63C9.29867 15.4735 8.83772 15.456 8.41572 15.5895C8.04424 15.2145 7.53975 14.999 7.00022 14.999C6.72425 14.999 6.50024 15.223 6.50024 15.499C6.50024 15.7749 6.72407 15.9989 7.00011 15.9989Z" fill="#F37022"/>
<path d="M29.4999 18.999H0.499978C0.224003 18.999 0 19.223 0 19.499C0 20.8775 1.12148 21.999 2.50001 21.999H3.02753C3.27702 24.246 5.18752 25.999 7.50003 25.999H22.5C24.8125 25.999 26.7225 24.246 26.9719 21.999H27.4999C28.8784 21.999 29.9999 20.8775 29.9999 19.499C29.9999 19.223 29.7764 18.999 29.4999 18.999ZM27.4999 20.999H26.4999C26.2234 20.999 25.9999 21.223 25.9999 21.499C25.9999 23.429 24.4294 24.9989 22.4999 24.9989H7.49997C5.73947 24.9989 4.27897 23.693 4.03551 21.999H24.4999C24.7764 21.999 24.9999 21.775 24.9999 21.499C24.9999 21.223 24.7764 20.999 24.4999 20.999H2.50001C1.84798 20.999 1.29199 20.581 1.0855 19.999H28.9144C28.7079 20.581 28.1519 20.999 27.4999 20.999Z" fill="#F37022"/>
<path d="M0.303087 14.9586L7.30308 17.9586C7.36706 17.9861 7.43409 17.9996 7.4996 17.9996C7.69407 17.9996 7.87858 17.8856 7.95962 17.6961C8.0686 17.4421 7.9506 17.1481 7.69712 17.0396L0.697128 14.0396C0.443126 13.9307 0.148635 14.0487 0.0406467 14.3021C-0.0683959 14.5561 0.0496115 14.8501 0.303087 14.9586Z" fill="#F37022"/>
</svg>
