<svg width="12" height="12" viewBox="0 0 12 12" fill="none" xmlns="http://www.w3.org/2000/svg">
<path d="M7.02884 11.8338C6.70801 11.8338 6.39942 11.8118 6.10309 11.7678C5.80637 11.7243 5.50245 11.649 5.19134 11.5421C5.39551 11.4352 5.5779 11.299 5.73851 11.1338C5.89873 10.9685 6.03717 10.7838 6.15384 10.5796C6.28995 10.6088 6.43812 10.6305 6.59834 10.6449C6.75895 10.6597 6.91217 10.6671 7.05801 10.6671C7.57329 10.6671 8.07884 10.5845 8.57467 10.4192C9.07051 10.2539 9.48856 10.0157 9.82884 9.7046C8.99273 9.42266 8.24898 9.01199 7.59759 8.4726C6.9462 7.93282 6.41401 7.30554 6.00101 6.59077C5.58762 5.87638 5.30801 5.10113 5.16217 4.26502C5.01634 3.42891 5.02606 2.57821 5.19134 1.71293C4.32606 2.02405 3.63345 2.59513 3.11351 3.42618C2.59317 4.25763 2.33301 5.11571 2.33301 6.00043C2.12884 6.00043 1.9272 6.02241 1.72809 6.06635C1.52859 6.10991 1.34134 6.17543 1.16634 6.26293C1.13717 5.48516 1.25131 4.74627 1.50876 4.04627C1.76659 3.34627 2.1337 2.72405 2.61009 2.1796C3.08648 1.63516 3.65037 1.18793 4.30176 0.837934C4.95315 0.487934 5.65801 0.274045 6.41634 0.196267C6.5719 0.176823 6.68117 0.215712 6.74417 0.312934C6.80756 0.410156 6.80523 0.536545 6.73717 0.692101C6.32884 1.59627 6.16123 2.51502 6.23434 3.44835C6.30706 4.38168 6.56451 5.23471 7.00667 6.00743C7.44923 6.78054 8.05454 7.4296 8.82259 7.9546C9.59065 8.4796 10.4705 8.79071 11.4622 8.88793C11.6275 8.90738 11.7369 8.96804 11.7906 9.06993C11.8439 9.17221 11.8219 9.28654 11.7247 9.41293C11.1705 10.1907 10.4826 10.7886 9.66084 11.2067C8.83951 11.6247 7.96217 11.8338 7.02884 11.8338ZM4.08301 10.6671H2.33301C1.8469 10.6671 1.4337 10.4993 1.09342 10.1637C0.753147 9.82846 0.583008 9.41293 0.583008 8.9171C0.583008 8.43099 0.753147 8.01779 1.09342 7.67752C1.4337 7.33724 1.8469 7.1671 2.33301 7.1671C2.71217 7.1671 3.05012 7.27638 3.34684 7.49493C3.64317 7.71388 3.84967 7.99349 3.96634 8.33377H4.08301C4.40384 8.33377 4.6784 8.44791 4.90667 8.67618C5.13534 8.90485 5.24967 9.1796 5.24967 9.50043C5.24967 9.82127 5.13534 10.096 4.90667 10.3247C4.6784 10.553 4.40384 10.6671 4.08301 10.6671Z" fill="#A2A2A2"/>
</svg>
