<svg width="20" height="20" viewBox="0 0 20 20" fill="none" xmlns="http://www.w3.org/2000/svg">
<path d="M6.61598 17.9543C6.38164 17.7199 6.25 17.402 6.25 17.0706C6.25 16.7391 6.38164 16.4212 6.61598 16.1868L12.8035 9.99933L6.61598 3.81183C6.38829 3.57608 6.26229 3.26032 6.26514 2.93258C6.26799 2.60483 6.39945 2.29132 6.63121 2.05956C6.86297 1.8278 7.17648 1.69633 7.50423 1.69349C7.83198 1.69064 8.14773 1.81663 8.38348 2.04433L15.4547 9.11558C15.6891 9.34999 15.8207 9.66787 15.8207 9.99933C15.8207 10.3308 15.6891 10.6487 15.4547 10.8831L8.38348 17.9543C8.14907 18.1887 7.83119 18.3203 7.49973 18.3203C7.16828 18.3203 6.85039 18.1887 6.61598 17.9543Z" fill="white"/>
</svg>
