<svg width="27" height="30" viewBox="0 0 27 30" fill="none" xmlns="http://www.w3.org/2000/svg">
<path d="M13.9253 1.08982C13.6371 1.07952 13.348 1.07931 13.0585 1.08929C12.7688 1.09928 12.4801 1.11945 12.1929 1.14963C11.8861 1.18188 11.6104 0.967234 11.5771 0.670207C11.5438 0.373181 11.7655 0.106252 12.0723 0.0740048C12.3862 0.0410082 12.7019 0.0189566 13.0188 0.00802855C13.3353 -0.00288792 13.6514 -0.00264925 13.9665 0.00860548C14.2749 0.0196195 14.5157 0.270586 14.5043 0.569154C14.4929 0.867723 14.2337 1.10083 13.9253 1.08982Z" fill="#0FB680"/>
<path d="M15.1989 0.642992C15.2546 0.349137 15.5459 0.15468 15.8494 0.20866C16.4705 0.319113 17.083 0.47293 17.6825 0.668951C17.9749 0.764553 18.1319 1.07152 18.0331 1.35458C17.9344 1.63765 17.6173 1.78962 17.3249 1.69401C16.7762 1.51458 16.2157 1.37384 15.6475 1.2728C15.344 1.21882 15.1431 0.936847 15.1989 0.642992Z" fill="#0FB680"/>
<path d="M10.8876 0.792127C10.9648 1.0814 10.7851 1.37649 10.4863 1.45122C9.92642 1.59126 9.37685 1.77039 8.84165 1.98731C8.55698 2.10269 8.22959 1.97281 8.11042 1.69721C7.99124 1.42162 8.1254 1.10467 8.41006 0.989292C8.99451 0.752413 9.59488 0.556714 10.2068 0.403671C10.5056 0.328936 10.8104 0.502853 10.8876 0.792127Z" fill="#0FB680"/>
<path d="M18.6774 1.61639C18.8167 1.34981 19.1529 1.24308 19.4283 1.378C19.7091 1.51561 19.9857 1.66321 20.2574 1.82066C20.5327 1.98018 20.8017 2.14902 21.0639 2.32673C21.3167 2.49808 21.3782 2.83539 21.2012 3.08015C21.0242 3.3249 20.6758 3.38442 20.423 3.21307C20.1825 3.05007 19.9358 2.89526 19.6834 2.74902C19.4344 2.60469 19.1809 2.46942 18.9236 2.34335C18.6482 2.20843 18.538 1.88296 18.6774 1.61639Z" fill="#0FB680"/>
<path d="M7.48488 2.00327C7.64321 2.25972 7.55681 2.59188 7.29191 2.74516C7.04402 2.88859 6.80059 3.04092 6.56213 3.20198C6.32031 3.36531 6.08481 3.5368 5.85599 3.71604C5.61608 3.90397 5.26422 3.86803 5.07011 3.63576C4.87599 3.40349 4.91312 3.06286 5.15303 2.87493C5.40237 2.67962 5.65904 2.49271 5.92268 2.31464C6.18267 2.13904 6.44814 1.97292 6.71856 1.81644C6.98347 1.66316 7.32656 1.74681 7.48488 2.00327Z" fill="#0FB680"/>
<path d="M21.7652 3.5234C21.976 3.30524 22.3296 3.29386 22.555 3.49799C23.0217 3.92073 23.4582 4.37551 23.8614 4.85896C24.0552 5.09142 24.0177 5.43201 23.7776 5.6197C23.5375 5.80739 23.1857 5.77109 22.9918 5.53863C22.6211 5.09412 22.22 4.67624 21.7914 4.28803C21.5661 4.0839 21.5543 3.74156 21.7652 3.5234Z" fill="#0FB680"/>
<path d="M4.53612 4.11839C4.76198 4.322 4.77457 4.66431 4.56426 4.88296C4.16326 5.29986 3.79166 5.74447 3.45225 6.21355C3.27518 6.45825 2.92674 6.51766 2.67398 6.34624C2.42122 6.17482 2.35985 5.83749 2.53692 5.59279C2.90585 5.08291 3.30999 4.59933 3.74638 4.14563C3.95669 3.92698 4.31027 3.91479 4.53612 4.11839Z" fill="#0FB680"/>
<path d="M24.1938 6.19604C24.4582 6.04198 24.8016 6.1246 24.9607 6.38059C25.1251 6.64508 25.2807 6.91572 25.4271 7.1921C25.5752 7.47187 25.7132 7.75613 25.8408 8.0443C25.9624 8.3189 25.8311 8.63695 25.5475 8.75469C25.2638 8.87244 24.9353 8.74529 24.8137 8.4707C24.6961 8.20519 24.569 7.94334 24.4326 7.68568C24.2978 7.43114 24.1545 7.18196 24.0032 6.9385C23.844 6.68251 23.9294 6.3501 24.1938 6.19604Z" fill="#0FB680"/>
<path d="M2.29701 6.95197C2.57156 7.08839 2.6799 7.41446 2.53899 7.68027C2.40462 7.93372 2.27874 8.19232 2.16168 8.45569C2.04333 8.72194 1.9346 8.99172 1.83555 9.26448C1.7332 9.54635 1.41421 9.69452 1.12307 9.59543C0.831925 9.49635 0.678875 9.18753 0.781224 8.90567C0.888682 8.60973 1.00667 8.31699 1.13512 8.02802C1.26217 7.74218 1.39882 7.46145 1.54472 7.18624C1.68564 6.92043 2.02245 6.81554 2.29701 6.95197Z" fill="#0FB680"/>
<path d="M25.7961 9.44234C26.0936 9.36299 26.4012 9.53216 26.4832 9.8202C26.6553 10.4248 26.785 11.0408 26.8714 11.6634C26.9126 11.9595 26.6979 12.2318 26.3921 12.2716C26.0862 12.3114 25.8049 12.1036 25.7638 11.8075C25.6841 11.2331 25.5644 10.6651 25.4058 10.1076C25.3238 9.81953 25.4986 9.5217 25.7961 9.44234Z" fill="#0FB680"/>
<path d="M0.922021 10.2989C1.22434 10.3589 1.41917 10.6448 1.35718 10.9375C1.23705 11.5047 1.15657 12.0797 1.11633 12.6582C1.0956 12.9563 0.829185 13.1817 0.521272 13.1616C0.213359 13.1415 -0.0194473 12.8836 0.00128381 12.5855C0.0448919 11.9584 0.132134 11.3351 0.262381 10.7202C0.324371 10.4275 0.619701 10.2389 0.922021 10.2989Z" fill="#0FB680"/>
<path d="M26.4418 12.9985C26.7505 12.9989 27.0003 13.2414 27 13.5401C26.9996 13.8532 26.9884 14.1668 26.9662 14.4805C26.944 14.7935 26.911 15.105 26.8674 15.4144C26.8256 15.7104 26.5439 15.9176 26.2381 15.8772C25.9324 15.8368 25.7183 15.564 25.7601 15.268C25.8003 14.9826 25.8308 14.6953 25.8512 14.4065C25.8717 14.1171 25.8821 13.8277 25.8824 13.5389C25.8828 13.2401 26.1332 12.9982 26.4418 12.9985Z" fill="#0FB680"/>
<path d="M0.521391 13.8915C0.829297 13.8713 1.09579 14.0966 1.11662 14.3947C1.13678 14.6831 1.16699 14.9714 1.20734 15.259C1.24752 15.5454 1.29754 15.8296 1.3572 16.1113C1.4192 16.404 1.22437 16.6899 0.922054 16.7499C0.619735 16.81 0.324402 16.6213 0.26241 16.3287C0.197721 16.0232 0.143486 15.715 0.0999287 15.4046C0.0561958 15.0928 0.0234447 14.7804 0.00159576 14.4677C-0.0192352 14.1696 0.213485 13.9116 0.521391 13.8915Z" fill="#0FB680"/>
<path d="M26.0873 16.5865C26.3847 16.6664 26.5589 16.9645 26.4764 17.2524C26.3032 17.8569 26.088 18.4485 25.8325 19.0231C25.7105 19.2975 25.3817 19.4242 25.0983 19.306C24.8148 19.1879 24.684 18.8697 24.806 18.5952C25.0415 18.0658 25.2398 17.5205 25.3995 16.9632C25.482 16.6753 25.7899 16.5067 26.0873 16.5865Z" fill="#0FB680"/>
<path d="M1.12057 17.4454C1.41178 17.3464 1.73067 17.4948 1.83284 17.7767C2.03032 18.3217 2.26549 18.852 2.53659 19.3639C2.67739 19.6298 2.56892 19.9558 2.2943 20.0921C2.01969 20.2284 1.68292 20.1234 1.54212 19.8575C1.24776 19.3017 0.992529 18.7261 0.778281 18.1349C0.676114 17.853 0.829362 17.5443 1.12057 17.4454Z" fill="#0FB680"/>
<path d="M24.7562 19.9502C25.0203 20.1048 25.1049 20.4374 24.9452 20.693C24.7779 20.9609 24.6009 21.2233 24.4143 21.4799C24.2367 21.7243 23.8882 21.7829 23.6358 21.611C23.3834 21.439 23.3228 21.1016 23.5004 20.8572C23.672 20.6212 23.8349 20.3797 23.9889 20.1331C24.1486 19.8775 24.4921 19.7956 24.7562 19.9502Z" fill="#0FB680"/>
<path d="M2.67902 20.7101C2.93166 20.5385 3.28014 20.5977 3.45738 20.8422C3.628 21.0777 3.80714 21.3075 3.9946 21.5313C4.189 21.7633 4.15229 22.104 3.9126 22.2922C3.67291 22.4804 3.32102 22.4449 3.12662 22.2128C2.92274 21.9695 2.72796 21.7195 2.5425 21.4636C2.36526 21.219 2.42638 20.8817 2.67902 20.7101Z" fill="#0FB680"/>
<path fill-rule="evenodd" clip-rule="evenodd" d="M14.1073 9.03762C13.9434 8.53236 13.2048 8.53236 13.041 9.03762L12.3031 11.3132C12.23 11.5387 12.0141 11.6922 11.77 11.6922H9.34227C8.80563 11.6922 8.57753 12.3533 9.00643 12.6655L11.0032 14.1192C11.1923 14.2569 11.2714 14.495 11.2005 14.7136L10.4457 17.0415C10.283 17.5432 10.8805 17.9519 11.3147 17.6359L13.2383 16.2354C13.4372 16.0906 13.7111 16.0906 13.91 16.2354L15.8336 17.6359C16.2677 17.9519 16.8652 17.5432 16.7026 17.0415L15.9477 14.7136C15.8769 14.495 15.9559 14.2569 16.145 14.1192L18.1418 12.6655C18.5707 12.3533 18.3426 11.6922 17.806 11.6922H15.3783C15.1341 11.6922 14.9183 11.5387 14.8451 11.3132L14.1073 9.03762ZM13.5741 10.4038L13.1917 11.5833C12.9967 12.1846 12.421 12.5938 11.77 12.5938H10.4575L11.5629 13.3986C12.0673 13.7658 12.2781 14.4008 12.0891 14.9837L11.6814 16.2407L12.6785 15.5148C13.209 15.1287 13.9393 15.1287 14.4697 15.5148L15.4668 16.2407L15.0592 14.9837C14.8702 14.4008 15.0809 13.7658 15.5853 13.3986L16.6908 12.5938H15.3783C14.7272 12.5938 14.1516 12.1846 13.9566 11.5833L13.5741 10.4038Z" fill="#0FB680"/>
<path d="M9.20537 8.668C10.3677 7.50325 11.9401 6.85249 13.5753 6.85249C13.8839 6.85249 14.1341 6.61029 14.1341 6.31152C14.1341 6.01275 13.8839 5.77055 13.5753 5.77055C11.631 5.77055 9.77039 6.54468 8.40164 7.91623C7.03351 9.28716 6.26816 11.1427 6.26816 13.0737C6.26816 13.3725 6.51834 13.6147 6.82695 13.6147C7.13556 13.6147 7.38574 13.3725 7.38574 13.0737C7.38574 11.4178 8.04236 9.83338 9.20537 8.668Z" fill="#0FB680"/>
<path fill-rule="evenodd" clip-rule="evenodd" d="M13.4843 23.2618C18.8513 23.2618 23.202 18.9022 23.202 13.5243C23.202 8.14638 18.8513 3.78674 13.4843 3.78674C8.11742 3.78674 3.76668 8.14638 3.76668 13.5243C3.76668 18.9022 8.11742 23.2618 13.4843 23.2618ZM13.4843 22.1799C18.1981 22.1799 22.0844 18.34 22.0844 13.5243C22.0844 8.7085 18.1981 4.86869 13.4843 4.86869C8.77061 4.86869 4.88426 8.7085 4.88426 13.5243C4.88426 18.34 8.77061 22.1799 13.4843 22.1799Z" fill="#0FB680"/>
<path d="M7.74545 22.3601C7.74545 22.0613 7.49527 21.8191 7.18666 21.8191C6.87805 21.8191 6.62788 22.0613 6.62788 22.3601V30L13.4851 27.4478L20.3424 30V22.3601C20.3424 22.0613 20.0922 21.8191 19.7836 21.8191C19.475 21.8191 19.2248 22.0613 19.2248 22.3601V28.4249L13.4851 26.2887L7.74545 28.4249V22.3601Z" fill="#0FB680"/>
</svg>
