<svg width="40" height="40" viewBox="0 0 40 40" fill="none" xmlns="http://www.w3.org/2000/svg">
<g clip-path="url(#clip0_10342_6336)">
<rect width="40" height="40" fill="white"/>
<path d="M40 20.68L32.2936 28.96L33.7761 21.9179L16.8807 20.86L16.8807 20.41L33.7359 19.2666L32.2936 12.49L40 20.68Z" fill="#656565"/>
<path d="M25.7322 22.4644L25.7325 22.4628L27.3347 22.7255C27.233 23.3224 27.091 23.9087 26.911 24.481C26.08 27.1226 24.4367 29.4655 22.185 31.1754C19.4454 33.2557 16.0067 34.2459 12.5556 33.948C9.10448 33.6502 5.89484 32.0864 3.56752 29.5689C1.24021 27.0513 -0.033509 23.7652 0.000670802 20.3668C0.0348583 16.9683 1.37444 13.7076 3.75193 11.2355C6.12944 8.76353 9.36991 7.26216 12.8264 7.03122C16.2828 6.80028 19.7009 7.85676 22.3981 9.98971C24.615 11.7428 26.2109 14.1172 26.9885 16.7743C27.1569 17.3496 27.287 17.9382 27.3766 18.5366L27.3768 18.5377L25.7696 18.7693C25.3255 15.8037 23.7574 13.1115 21.3786 11.2304C18.9998 9.34918 15.9852 8.41741 12.9367 8.62109C9.8883 8.82477 7.03033 10.1489 4.93347 12.3291C2.83661 14.5094 1.65516 17.3852 1.62501 20.3825C1.59486 23.3798 2.71823 26.278 4.77083 28.4984C6.82342 30.7188 9.6542 32.098 12.6979 32.3606C15.7417 32.6233 18.7744 31.75 21.1907 29.9153C23.6064 28.0809 25.2282 25.4202 25.7322 22.4644Z" fill="#656565"/>
<path fill-rule="evenodd" clip-rule="evenodd" d="M9.5441 28.0202C11.5148 28.2919 12.4629 28.4892 12.6732 28.5351C13.4652 29.0719 14.6373 29.1546 15.6083 29.104C15.7887 29.1181 16.7411 29.1845 17.8848 29.0922C19.584 28.9549 20.8233 28.5463 21.5688 27.8777C22.0476 27.4478 22.3138 26.916 22.3617 26.2937C22.3671 26.2238 22.3696 26.1524 22.3695 26.0798C22.3937 25.9125 22.4842 24.9716 21.6909 24.1C20.6652 22.9736 18.6648 22.4788 15.7457 22.6284C15.3624 22.6144 15.1076 22.6182 15.0589 22.6193L15.032 22.6211C13.6477 22.7948 7.40211 22.3819 7.33931 22.3776L7.26065 22.3725L7.25954 22.3732C6.17077 22.3077 5.19114 22.5307 4.5032 22.9462C4.48673 22.9562 4.47064 22.9663 4.45454 22.9765C3.89297 23.3304 3.53666 23.8163 3.49326 24.3799C3.49326 24.3799 3.38442 25.1657 4.01951 25.8367C4.4766 26.3427 5.39102 26.8211 6.78583 27.2857C8.15951 27.7432 9.5155 28.0151 9.52919 28.0178L9.5441 28.0202ZM21.8725 26.0426C21.8725 26.0426 21.9221 26.7649 21.2325 27.5221C20.8199 27.9752 20.1227 28.1979 19.4234 28.3681C20.274 28.0425 20.8912 27.601 21.2673 27.0466C21.5365 26.6501 21.6288 26.2685 21.6513 25.9766C21.6709 25.7204 21.6369 25.5334 21.6218 25.4666C21.5702 24.8411 21.2547 24.3532 20.7875 23.9718C20.9822 24.1011 21.1586 24.2464 21.311 24.4119C22.0114 25.1737 21.8725 26.0426 21.8725 26.0426ZM8.85922 22.9553C9.27114 22.9787 9.73907 23.0045 10.2313 23.0289C9.6758 23.0839 9.06584 23.0744 8.90339 23.0708L8.85922 22.9553ZM13.2846 25.0532L13.2848 25.0578C13.2818 25.2813 13.2651 25.4881 13.2338 25.6784C12.9815 25.6571 12.7878 25.4418 12.7689 25.1782L12.8236 25.1822C12.892 25.1872 12.9517 25.1373 12.9568 25.0708C12.962 25.0044 12.9105 24.9462 12.8422 24.9412L12.8008 24.9382C12.8782 24.7199 13.0784 24.5687 13.3035 24.5753C13.3044 24.7638 13.2959 24.9318 13.2852 25.0488L13.2846 25.0532ZM12.644 25.1691C12.6594 25.4952 12.8977 25.7646 13.212 25.7974C13.1968 25.8728 13.1784 25.9445 13.1585 26.0142C13.1281 26.1203 13.0929 26.2203 13.0517 26.3133C12.9345 26.5781 12.7736 26.7902 12.5691 26.9475C12.5105 26.9926 12.4501 27.0315 12.3885 27.0653C11.6749 26.425 10.6227 26.1041 9.85342 25.9475C9.29872 25.8347 8.80993 25.7889 8.53242 25.7704C8.48879 25.1435 8.48195 24.6218 8.51281 24.221C8.54245 23.8361 8.59889 23.6795 8.61653 23.6386L8.66109 23.6004C8.9148 23.6105 9.33558 23.6189 9.82327 23.5946C10.834 23.5435 11.6618 23.3826 12.2863 23.1154C12.4831 23.1219 12.6767 23.1274 12.8649 23.1321C12.867 23.1333 12.8687 23.1344 12.8706 23.1356C12.8713 23.1361 12.8721 23.1366 12.873 23.1371C13.1916 23.2877 13.2869 23.9244 13.3015 24.4544C13.0132 24.4489 12.7595 24.6473 12.6737 24.9289L12.5 24.9162L12.5603 24.1321C12.5654 24.0656 12.514 24.0074 12.4457 24.0024C12.3772 23.9974 12.3177 24.0475 12.3126 24.114L12.2522 24.8982L11.7352 24.8604L11.7956 24.0763C11.8007 24.0098 11.7495 23.9516 11.681 23.9466C11.6128 23.9416 11.5532 23.9918 11.5481 24.0582L11.4877 24.8424L10.8419 24.7952L10.8874 24.204C10.8926 24.1374 10.8411 24.0796 10.7728 24.0746C10.7044 24.0696 10.6448 24.1193 10.6397 24.186L10.5942 24.7771L10.0426 24.7369C10.0574 24.5458 10.0848 24.3454 10.134 24.1728C10.1364 24.1652 10.1377 24.1571 10.1383 24.1494C10.1427 24.0929 10.1057 24.0398 10.048 24.0241C9.9819 24.0061 9.91334 24.0435 9.89502 24.1077C9.84064 24.2977 9.81066 24.5144 9.7947 24.7188L9.23751 24.6781C9.25357 24.5005 9.28473 24.3065 9.34101 24.116C9.34337 24.1077 9.34491 24.0994 9.34552 24.0915C9.34982 24.0356 9.3138 23.9823 9.25623 23.9663C9.19025 23.9478 9.12149 23.9849 9.10252 24.0489C9.04064 24.2577 9.00666 24.4681 8.98942 24.66L8.71807 24.6402C8.64934 24.6352 8.58982 24.6853 8.5847 24.7517C8.57958 24.8182 8.63079 24.8762 8.69951 24.8812L8.97547 24.9013C8.9665 25.2023 8.99361 25.4169 8.99595 25.4331C9.00446 25.4992 9.06662 25.5458 9.13458 25.5375C9.20241 25.5291 9.25103 25.4691 9.24221 25.4022C9.24174 25.3986 9.21661 25.2 9.22379 24.9195L9.78179 24.9602C9.77318 25.2339 9.78579 25.4477 9.78772 25.4803L9.7879 25.4835C9.79227 25.55 9.85154 25.6003 9.91999 25.5963C9.98834 25.5917 10.0405 25.534 10.0358 25.4676C10.0358 25.4676 10.0357 25.4666 10.0356 25.4653C10.0343 25.4416 10.0225 25.2381 10.0304 24.9783L10.5757 25.0181L10.5251 25.6749C10.52 25.7413 10.5713 25.7996 10.6396 25.8046C10.708 25.8095 10.7677 25.7594 10.7729 25.6929L10.8234 25.0362L11.4693 25.0833L11.4081 25.878C11.403 25.9444 11.4542 26.0025 11.5224 26.0075C11.5908 26.0125 11.6505 25.9625 11.6556 25.8961L11.7168 25.1014L12.2338 25.1391L12.1726 25.9338C12.1675 26.0002 12.2186 26.0583 12.2871 26.0633C12.3554 26.0683 12.4152 26.0183 12.4203 25.9519L12.4815 25.1572L12.644 25.1691ZM13.5676 26.7505L13.5674 26.7516C13.4465 27.5118 12.4389 27.7326 11.5568 27.7777C11.4079 27.7726 11.2558 27.767 11.0992 27.7606C10.6896 27.6956 10.1999 27.6226 9.62107 27.5426C9.61982 27.5424 9.61863 27.5421 9.61746 27.5419C9.61608 27.5416 9.61474 27.5413 9.61342 27.5411C9.80065 27.4675 10.2175 27.3976 11.1434 27.4769C11.2438 27.4974 12.0602 27.6447 12.7207 27.1389C13.1886 26.7805 13.4564 26.1884 13.5189 25.3769C13.5267 25.2763 13.5313 25.1727 13.533 25.0654C13.5375 25.0138 13.5708 24.6012 13.5316 24.1471C13.4925 23.6912 13.3938 23.3545 13.2382 23.1402C13.3934 23.1429 13.5442 23.1449 13.6888 23.1459C13.8438 23.4781 13.8856 24.1204 13.8074 25.0321C13.7333 25.9009 13.5744 26.7158 13.5676 26.7505ZM11.1901 27.2394L11.1732 27.2369C10.1139 27.1456 9.49706 27.223 9.28722 27.4729C9.00464 27.4116 8.70449 27.3398 8.39649 27.2594C8.52377 27.0522 8.76402 26.6424 8.82769 26.4073C9.15256 26.4424 10.8415 26.649 11.7384 27.2591C11.4292 27.2898 11.1941 27.2404 11.1901 27.2394ZM8.72587 26.276L8.71731 26.3328C8.68605 26.539 8.39883 27.0213 8.27191 27.2266C8.16473 27.198 8.05664 27.1684 7.9484 27.138C8.09992 26.9325 8.2977 26.616 8.3717 26.2838C8.45704 26.175 8.51103 26.0628 8.52978 25.9523C9.201 25.9986 11.1072 26.211 12.2083 27.1493C12.1082 27.1885 12.0083 27.2155 11.9123 27.234C11.5099 26.9247 10.8779 26.6725 10.0311 26.4839C9.35715 26.3335 8.78997 26.282 8.78433 26.2815L8.72587 26.276ZM7.94755 26.6434C7.99541 26.6148 8.04035 26.5852 8.08284 26.5545C7.98629 26.7652 7.85548 26.9552 7.75753 27.0832C7.57089 27.0287 7.38409 26.9715 7.19888 26.9121C7.43551 26.885 7.70227 26.7906 7.94755 26.6434ZM6.96992 26.5654C4.62131 26.8483 4.05311 24.5498 4.05311 24.5498C4.05311 24.5498 4.88329 22.5249 7.37322 22.8727C7.61449 22.9357 7.92221 23.2227 8.13247 23.5186C8.08829 23.647 8.04302 23.8536 8.01752 24.1848C7.98384 24.6223 7.99201 25.1877 8.04131 25.8662C8.04156 25.8679 8.04139 25.87 8.04123 25.8721C8.03664 25.9318 7.9363 26.082 7.68693 26.2319C7.48779 26.3515 7.13842 26.5565 6.96992 26.5654ZM8.65546 23.4183L8.62538 23.3704C8.5446 23.2413 8.42261 23.078 8.27413 22.921C8.36308 22.9264 8.45675 22.9319 8.55467 22.9377C8.60974 22.9409 8.66615 22.9442 8.72383 22.9476L8.81604 23.1892L8.85791 23.1907L8.86045 23.1908C8.94699 23.1933 10.1136 23.2273 10.8127 23.0566C11.1406 23.0717 11.4729 23.086 11.801 23.0984C10.6488 23.4555 9.21144 23.4407 8.65546 23.4183ZM20.8532 26.78C20.3941 27.4564 19.4441 27.9585 18.083 28.2515C18.083 28.2515 18.0068 28.2657 17.9253 28.2905C17.8502 28.3133 17.7826 28.3171 17.7826 28.3171C17.7812 28.3357 17.7779 28.2949 17.7828 28.3117C17.6077 28.3438 17.427 28.3732 17.2401 28.3992L17.2169 28.4034C17.1915 28.4093 14.9352 28.9209 13.4751 28.3958C13.4751 28.3958 14.0296 27.469 14.109 27.4406C14.5369 27.3529 14.7932 27.1595 14.8687 26.8882C14.8687 26.8882 14.8773 26.4785 14.8805 26.4372C14.9123 26.0228 15.5297 25.9099 15.9571 25.8318C16.239 25.7802 16.4382 25.7438 16.3323 25.646C16.6564 25.4765 17.8386 24.8104 17.8932 24.1011C17.902 23.9869 17.8816 23.8721 17.8238 23.7577C17.8086 23.7125 17.7121 23.4775 17.2885 23.2478C17.5506 23.2836 17.8219 23.328 18.093 23.383C18.0962 23.3837 18.0991 23.3844 18.1023 23.3848C18.097 23.4669 18.1601 23.5378 18.2441 23.5439C18.313 23.5489 18.3737 23.509 18.3978 23.4501C20.5554 23.9556 21.0785 24.8468 21.1279 25.5206L21.1298 25.5436L21.1359 25.5661C21.1363 25.5678 21.1512 25.6244 21.1583 25.7209C21.1652 25.816 21.1644 25.9503 21.1348 26.1089C21.0983 26.3045 21.0179 26.5371 20.8532 26.78Z" fill="#656565"/>
<path fill-rule="evenodd" clip-rule="evenodd" d="M9.54067 12.9897C11.511 12.7154 12.4588 12.517 12.6691 12.4708C13.4604 11.933 14.6323 11.8487 15.6034 11.8981C15.7837 11.8837 16.736 11.8161 17.8799 11.9069C19.5793 12.0419 20.8192 12.449 21.5656 13.1166C22.045 13.5459 22.3118 14.0773 22.3606 14.6996C22.3661 14.7695 22.3687 14.8409 22.3687 14.9135C22.3932 15.0808 22.485 16.0215 21.6928 16.8942C20.6686 18.0219 18.6689 18.5193 15.7496 18.3734C15.3664 18.3879 15.1116 18.3844 15.0628 18.3835L15.036 18.3817C13.6514 18.2098 7.4064 18.6308 7.34359 18.6352L7.26495 18.6404L7.26384 18.6396C6.17516 18.7065 5.19522 18.4848 4.50671 18.0702C4.49023 18.0603 4.47412 18.0502 4.45801 18.04C3.89596 17.6868 3.53898 17.2014 3.49482 16.6378C3.49482 16.6378 3.3849 15.8521 4.01907 15.1804C4.47547 14.6737 5.38924 14.1942 6.7834 13.7278C8.15646 13.2685 9.51208 12.9948 9.52576 12.9921L9.54067 12.9897ZM21.8718 14.9514C21.8718 14.9514 21.9204 14.229 21.2297 13.4727C20.8165 13.0201 20.119 12.7983 19.4195 12.629C20.2705 12.9535 20.8883 13.3942 21.2652 13.9481C21.535 14.3443 21.6278 14.7258 21.6506 15.0176C21.6706 15.2738 21.6368 15.4609 21.6219 15.5276C21.5711 16.1532 21.2562 16.6415 20.7896 17.0235C20.9841 16.894 21.1603 16.7485 21.3125 16.5827C22.0118 15.8201 21.8718 14.9514 21.8718 14.9514ZM8.86272 18.0555C9.2746 18.0315 9.7425 18.0052 10.2347 17.9801C9.67912 17.9259 9.06918 17.9361 8.90672 17.94L8.86272 18.0555ZM13.2853 15.9519L13.2854 15.9472C13.2821 15.7238 13.2651 15.517 13.2336 15.3267C12.9813 15.3483 12.7879 15.5639 12.7694 15.8275L12.8241 15.8235C12.8924 15.8184 12.9522 15.8681 12.9574 15.9347C12.9626 16.0011 12.9113 16.0593 12.843 16.0644L12.8016 16.0675C12.8793 16.2857 13.0797 16.4366 13.3048 16.4298C13.3054 16.2413 13.2967 16.0733 13.2858 15.9563L13.2853 15.9519ZM12.6444 15.8368C12.6595 15.5107 12.8974 15.2409 13.2116 15.2077C13.1963 15.1323 13.1778 15.0607 13.1578 14.991C13.1273 14.885 13.0919 14.785 13.0506 14.6921C12.933 14.4275 12.7719 14.2155 12.5671 14.0585C12.5085 14.0135 12.448 13.9746 12.3864 13.9409C11.6737 14.5821 10.6219 14.9044 9.85282 15.062C9.29828 15.1755 8.80955 15.222 8.53207 15.2408C8.48929 15.8678 8.48317 16.3895 8.51458 16.7903C8.54474 17.1751 8.60139 17.3316 8.61909 17.3725L8.66371 17.4107C8.9174 17.4002 9.33816 17.3913 9.8259 17.415C10.8367 17.4647 11.6648 17.6245 12.2896 17.8909C12.4863 17.8842 12.6799 17.8784 12.8682 17.8735C12.8702 17.8723 12.872 17.8712 12.8738 17.87C12.8746 17.8695 12.8754 17.869 12.8762 17.8685C13.1946 17.7175 13.2891 17.0806 13.3029 16.5506C13.0146 16.5565 12.7607 16.3584 12.6745 16.0769L12.5008 16.0898L12.5622 16.8739C12.5674 16.9404 12.5161 16.9987 12.4477 17.0037C12.3792 17.0088 12.3197 16.9588 12.3145 16.8923L12.2531 16.1082L11.7361 16.1466L11.7976 16.9307C11.8028 16.9972 11.7516 17.0555 11.6831 17.0605C11.6149 17.0656 11.5553 17.0155 11.5501 16.9491L11.4887 16.165L10.8429 16.213L10.8892 16.8041C10.8944 16.8707 10.8431 16.9286 10.7747 16.9337C10.7064 16.9388 10.6467 16.8892 10.6415 16.8225L10.5952 16.2314L10.0437 16.2724C10.0587 16.4634 10.0864 16.6638 10.1359 16.8363C10.1383 16.844 10.1396 16.852 10.1402 16.8598C10.1446 16.9162 10.1077 16.9694 10.05 16.9851C9.98396 17.0032 9.91535 16.9659 9.89694 16.9017C9.8423 16.7118 9.81203 16.4952 9.79578 16.2908L9.23865 16.3322C9.25496 16.5097 9.28638 16.7038 9.34292 16.8941C9.34529 16.9025 9.34684 16.9108 9.34746 16.9187C9.35184 16.9746 9.31589 17.0279 9.25834 17.044C9.19239 17.0625 9.12358 17.0255 9.10452 16.9616C9.04235 16.7528 9.00809 16.5426 8.99058 16.3506L8.71926 16.3708C8.65054 16.3759 8.59095 16.3259 8.58574 16.2595C8.58053 16.1929 8.63166 16.1349 8.70038 16.1298L8.97631 16.1093C8.96692 15.8084 8.99374 15.5937 8.99606 15.5775C9.00447 15.5114 9.06658 15.4648 9.13455 15.4729C9.20238 15.4813 9.25109 15.5412 9.24236 15.608C9.2419 15.6117 9.21703 15.8103 9.2246 16.0909L9.78255 16.0494C9.77355 15.7756 9.78589 15.5618 9.78776 15.5293L9.78794 15.5261C9.79222 15.4596 9.85141 15.4092 9.91987 15.4131C9.98822 15.4176 10.0404 15.4753 10.0358 15.5417C10.0358 15.5417 10.0358 15.5426 10.0357 15.5439C10.0344 15.5677 10.0229 15.7712 10.0311 16.031L10.5764 15.9904L10.5249 15.3338C10.5197 15.2673 10.5709 15.209 10.6392 15.2039C10.7076 15.1989 10.7674 15.2489 10.7726 15.3154L10.8241 15.972L11.4698 15.9241L11.4076 15.1295C11.4024 15.0631 11.4535 15.0049 11.5217 14.9998C11.5901 14.9948 11.6498 15.0447 11.655 15.1111L11.7173 15.9057L12.2343 15.8673L12.172 15.0727C12.1668 15.0063 12.2178 14.9481 12.2863 14.943C12.3547 14.938 12.4145 14.9879 12.4197 15.0543L12.482 15.8489L12.6444 15.8368ZM13.5659 14.2542L13.5657 14.2531C13.4437 13.4931 12.4359 13.2736 11.5537 13.2296C11.4048 13.2349 11.2527 13.2407 11.0961 13.2473C10.6866 13.3128 10.197 13.3864 9.61829 13.4672C9.61705 13.4674 9.61585 13.4677 9.61468 13.4679C9.6133 13.4682 9.61196 13.4685 9.61064 13.4687C9.79798 13.5421 10.2149 13.6114 11.1407 13.531C11.2411 13.5103 12.0573 13.362 12.7184 13.8669C13.1869 14.2247 13.4555 14.8165 13.5191 15.6278C13.527 15.7285 13.5317 15.8321 13.5336 15.9393C13.5381 15.9909 13.572 16.4035 13.5335 16.8577C13.495 17.3136 13.3968 17.6504 13.2414 17.8649C13.3966 17.862 13.5474 17.8598 13.6921 17.8587C13.8466 17.5262 13.8874 16.8839 13.8081 15.9723C13.7327 15.1036 13.5727 14.289 13.5659 14.2542ZM11.1878 13.7684L11.1709 13.7709C10.1117 13.8636 9.49472 13.787 9.28453 13.5374C9.00204 13.599 8.70199 13.6712 8.3941 13.752C8.52166 13.959 8.76247 14.3686 8.82647 14.6035C9.15129 14.5681 10.84 14.3592 11.736 13.748C11.4267 13.7176 11.1917 13.7673 11.1878 13.7684ZM8.72482 14.7349L8.71619 14.6782C8.68464 14.4721 8.39676 13.9901 8.26956 13.7849C8.16242 13.8137 8.05438 13.8434 7.94618 13.874C8.09797 14.0793 8.29619 14.3955 8.37064 14.7276C8.45613 14.8363 8.51028 14.9485 8.52918 15.059C9.20033 15.0117 11.1062 14.7969 12.2061 13.8571C12.1059 13.8181 12.0059 13.7912 11.9099 13.7728C11.5079 14.0827 10.8763 14.3356 10.0298 14.5254C9.35603 14.6766 8.78892 14.7289 8.78328 14.7294L8.72482 14.7349ZM7.94601 14.3686C7.9939 14.3971 8.03888 14.4266 8.08141 14.4573C7.98458 14.2467 7.8535 14.0569 7.75538 13.9291C7.56881 13.9837 7.38209 14.0412 7.19696 14.1009C7.43363 14.1277 7.70052 14.2217 7.94601 14.3686ZM6.96848 14.4478C4.61949 14.168 4.05443 16.4672 4.05443 16.4672C4.05443 16.4672 4.88737 18.491 7.37683 18.14C7.61801 18.0767 7.92534 17.7894 8.1352 17.4931C8.09084 17.3647 8.04529 17.1582 8.01933 16.8271C7.98505 16.3897 7.99245 15.8242 8.04083 15.1457C8.04107 15.144 8.0409 15.1418 8.04074 15.1397C8.03607 15.0801 7.93552 14.93 7.68595 14.7804C7.48664 14.6611 7.13699 14.4565 6.96848 14.4478ZM8.65832 17.5927L8.62831 17.6407C8.54771 17.7699 8.42594 17.9333 8.27767 18.0906C8.36648 18.085 8.45998 18.0794 8.55772 18.0736C8.61293 18.0703 8.6695 18.0669 8.72734 18.0634L8.81922 17.8217L8.86109 17.8201L8.86363 17.82C8.9503 17.8174 10.1168 17.7819 10.8161 17.9517C11.1439 17.9361 11.4762 17.9214 11.8043 17.9085C10.6516 17.553 9.21427 17.5696 8.65832 17.5927ZM20.8514 14.2152C20.3914 13.5394 19.4408 13.0385 18.0792 12.7473C18.0792 12.7473 18.003 12.7333 17.9215 12.7086C17.8463 12.6858 17.7788 12.6821 17.7788 12.6821C17.7773 12.6636 17.774 12.7044 17.7789 12.6875C17.6038 12.6557 17.4231 12.6265 17.2361 12.6007L17.2129 12.5966C17.1875 12.5907 14.9305 12.082 13.4711 12.609C13.4711 12.609 14.0269 13.5351 14.1063 13.5634C14.5344 13.6506 14.791 13.8436 14.8668 14.1148C14.8668 14.1148 14.876 14.5245 14.8792 14.5658C14.9116 14.9801 15.5292 15.0922 15.9567 15.1698C16.2386 15.221 16.4379 15.2572 16.3321 15.3551C16.6565 15.5242 17.8395 16.1888 17.8951 16.8979C17.9041 17.0122 17.8838 17.127 17.8262 17.2414C17.8111 17.2867 17.7149 17.5218 17.2916 17.752C17.5537 17.7159 17.8249 17.6712 18.0959 17.6158C18.0991 17.6152 18.102 17.6144 18.1052 17.614C18.0998 17.5319 18.1628 17.461 18.2468 17.4547C18.3157 17.4496 18.3764 17.4895 18.4006 17.5484C20.5575 17.04 21.0794 16.1481 21.1279 15.4742L21.1298 15.4513L21.1358 15.4288C21.1363 15.4271 21.151 15.3704 21.158 15.274C21.1648 15.1788 21.1637 15.0445 21.134 14.886C21.0972 14.6904 21.0165 14.4579 20.8514 14.2152Z" fill="#656565"/>
</g>
<defs>
<clipPath id="clip0_10342_6336">
<rect width="40" height="40" fill="white"/>
</clipPath>
</defs>
</svg>
