<svg width="16" height="16" viewBox="0 0 16 16" fill="none" xmlns="http://www.w3.org/2000/svg">
<path d="M10.2798 1.23425C10.2155 1.16284 10.1373 1.10527 10.0501 1.06506C9.96281 1.02484 9.86828 1.00281 9.77223 1.00032C9.67618 0.99782 9.58062 1.01491 9.49139 1.05054C9.40215 1.08617 9.3211 1.1396 9.25317 1.20757L1.2085 9.25729C1.14116 9.32476 1.08812 9.40512 1.05255 9.49358C1.01698 9.58203 0.999605 9.67675 1.00147 9.77207C1.00334 9.86739 1.02441 9.96136 1.06342 10.0484C1.10242 10.1353 1.15857 10.2136 1.2285 10.2783L2.14517 11.1267C2.16983 11.15 2.2145 11.174 2.3005 11.1774C2.38983 11.1814 2.5025 11.1607 2.6165 11.114C2.98813 10.963 3.39508 10.921 3.7897 10.9929C4.18433 11.0649 4.5503 11.2478 4.84478 11.5203C5.13925 11.7927 5.35004 12.1435 5.45248 12.5315C5.55491 12.9194 5.54474 13.3286 5.42317 13.711C5.38829 13.8141 5.37513 13.9233 5.3845 14.0318C5.39517 14.1171 5.4225 14.1598 5.44783 14.1825L6.12783 14.8121C6.26136 14.9356 6.43727 15.0029 6.6191 15.0002C6.80093 14.9975 6.97474 14.9248 7.1045 14.7974L14.7898 7.24653C14.9202 7.11849 14.9961 6.94504 15.0017 6.76237C15.0072 6.5797 14.9421 6.40193 14.8198 6.26616L14.1032 5.47119C14.0805 5.44718 14.0405 5.41983 13.9578 5.40716C13.8534 5.39527 13.7477 5.40481 13.6472 5.43517C13.3334 5.52265 13.0036 5.53639 12.6837 5.4753C12.3637 5.41422 12.0622 5.27997 11.8027 5.08304C11.5431 4.88611 11.3326 4.63183 11.1876 4.34006C11.0425 4.04829 10.9669 3.72693 10.9665 3.40107C10.9665 3.12763 11.0185 2.8662 11.1132 2.62544C11.1572 2.51407 11.1765 2.40536 11.1732 2.31932C11.1692 2.23663 11.1465 2.19394 11.1238 2.16927L10.2812 1.23491L10.2798 1.23425ZM8.5465 0.500635C8.71031 0.336715 8.90574 0.20785 9.12091 0.12188C9.33607 0.0359094 9.56648 -0.00536806 9.79809 0.000558733C10.0297 0.00648553 10.2577 0.0594927 10.4682 0.156355C10.6787 0.253217 10.8673 0.39191 11.0225 0.563993L11.8658 1.49835C12.2885 1.96719 12.1978 2.59943 12.0432 2.99225C11.9672 3.18482 11.9465 3.3948 11.9833 3.59852C12.0202 3.80224 12.1132 3.99161 12.2519 4.1453C12.3906 4.29899 12.5694 4.41089 12.7682 4.4684C12.967 4.52591 13.1779 4.52675 13.3772 4.47081C13.7832 4.35743 14.4212 4.33075 14.8445 4.80027L15.5612 5.59523C15.8563 5.9225 16.0136 6.35115 16.0003 6.79169C15.987 7.23222 15.8041 7.65059 15.4898 7.95946L7.8045 15.5103C7.49143 15.818 7.07202 15.9932 6.63324 15.9998C6.19446 16.0064 5.76998 15.8438 5.44783 15.5457L4.76783 14.9161C4.29183 14.4759 4.33917 13.8177 4.46983 13.4075C4.53388 13.2062 4.53928 12.9908 4.48539 12.7866C4.4315 12.5823 4.32055 12.3977 4.16554 12.2542C4.01052 12.1108 3.81786 12.0145 3.61012 11.9766C3.40237 11.9387 3.18813 11.9608 2.9925 12.0403C2.59317 12.2024 1.94117 12.3004 1.46583 11.8603L0.5485 11.0126C0.379645 10.8564 0.244058 10.6677 0.149863 10.4578C0.0556689 10.2479 0.0048066 10.0211 0.000324495 9.79104C-0.00415761 9.561 0.0378328 9.33242 0.123779 9.119C0.209726 8.90558 0.337859 8.71171 0.5005 8.54902L8.5465 0.500635Z" fill="#F47625"/>
</svg>
