<svg width="20" height="20" viewBox="0 0 20 20" fill="none" xmlns="http://www.w3.org/2000/svg">
<path d="M0 3C0 1.34315 1.34315 0 3 0H17C18.6569 0 20 1.34315 20 3V17C20 18.6569 18.6569 20 17 20H3C1.34315 20 0 18.6569 0 17V3Z" fill="#FFBA0A"/>
<path d="M15.6121 8.22554L12.0148 7.67806L10.4067 4.2641C10.3627 4.17063 10.2905 4.09496 10.2012 4.04897C9.97736 3.93324 9.70533 4.02968 9.59339 4.2641L7.98528 7.67806L4.38791 8.22554C4.28873 8.24038 4.19805 8.28934 4.12863 8.36352C4.0447 8.45386 3.99845 8.5754 4.00004 8.70142C4.00163 8.82745 4.05094 8.94766 4.13713 9.03563L6.73987 11.6929L6.12496 15.4452C6.11054 15.5324 6.11976 15.6222 6.15159 15.7043C6.18341 15.7864 6.23655 15.8575 6.305 15.9095C6.37344 15.9616 6.45444 15.9925 6.53882 15.9988C6.6232 16.0051 6.70757 15.9865 6.78238 15.9452L10 14.1736L13.2177 15.9452C13.3055 15.9941 13.4075 16.0104 13.5053 15.9926C13.7518 15.9481 13.9176 15.7033 13.8751 15.4452L13.2602 11.6929L15.8629 9.03563C15.9338 8.96293 15.9805 8.86798 15.9947 8.76412C16.033 8.50447 15.8601 8.26412 15.6121 8.22554Z" fill="white"/>
</svg>
