<svg width="16" height="16" viewBox="0 0 16 16" fill="none" xmlns="http://www.w3.org/2000/svg">
<g clip-path="url(#clip0_10348_6441)">
<path d="M7.99984 5.33366C6.5265 5.33366 5.33317 6.52699 5.33317 8.00033C5.33317 9.47366 6.5265 10.667 7.99984 10.667C9.47317 10.667 10.6665 9.47366 10.6665 8.00033C10.6665 6.52699 9.47317 5.33366 7.99984 5.33366ZM13.9598 7.33366C13.8088 5.98174 13.2026 4.72135 12.2407 3.75945C11.2788 2.79756 10.0184 2.19133 8.6665 2.04033V1.33366C8.6665 0.966992 8.3665 0.666992 7.99984 0.666992C7.63317 0.666992 7.33317 0.966992 7.33317 1.33366V2.04033C5.98125 2.19133 4.72086 2.79756 3.75897 3.75945C2.79707 4.72135 2.19085 5.98174 2.03984 7.33366H1.33317C0.966504 7.33366 0.666504 7.63366 0.666504 8.00033C0.666504 8.36699 0.966504 8.66699 1.33317 8.66699H2.03984C2.19085 10.0189 2.79707 11.2793 3.75897 12.2412C4.72086 13.2031 5.98125 13.8093 7.33317 13.9603V14.667C7.33317 15.0337 7.63317 15.3337 7.99984 15.3337C8.3665 15.3337 8.6665 15.0337 8.6665 14.667V13.9603C10.0184 13.8093 11.2788 13.2031 12.2407 12.2412C13.2026 11.2793 13.8088 10.0189 13.9598 8.66699H14.6665C15.0332 8.66699 15.3332 8.36699 15.3332 8.00033C15.3332 7.63366 15.0332 7.33366 14.6665 7.33366H13.9598ZM7.99984 12.667C5.41984 12.667 3.33317 10.5803 3.33317 8.00033C3.33317 5.42033 5.41984 3.33366 7.99984 3.33366C10.5798 3.33366 12.6665 5.42033 12.6665 8.00033C12.6665 10.5803 10.5798 12.667 7.99984 12.667Z" fill="#F37022"/>
</g>
<defs>
<clipPath id="clip0_10348_6441">
<rect width="16" height="16" fill="white"/>
</clipPath>
</defs>
</svg>
