<svg width="18" height="18" viewBox="0 0 18 18" fill="none" xmlns="http://www.w3.org/2000/svg">
<path d="M12.7429 11.3421C13.7112 10.0208 14.1449 8.38264 13.9572 6.7553C13.7695 5.12796 12.9743 3.63149 11.7307 2.56528C10.487 1.49907 8.88665 0.941751 7.24973 1.00482C5.61282 1.0679 4.06008 1.74671 2.90217 2.90545C1.74425 4.0642 1.06655 5.61742 1.00465 7.25438C0.942745 8.89134 1.50121 10.4913 2.56831 11.7342C3.6354 12.9771 5.13244 13.7712 6.75992 13.9577C8.38739 14.1442 10.0253 13.7094 11.3459 12.7401H11.3449C11.3749 12.7801 11.4069 12.8181 11.4429 12.8551L15.2929 16.7051C15.4804 16.8928 15.7348 16.9983 16 16.9983C16.2653 16.9984 16.5198 16.8932 16.7074 16.7056C16.895 16.5181 17.0005 16.2638 17.0006 15.9985C17.0007 15.7332 16.8954 15.4788 16.7079 15.2911L12.8579 11.4411C12.8221 11.405 12.7837 11.3715 12.7429 11.3411V11.3421ZM13.0009 7.49815C13.0009 8.22042 12.8586 8.93562 12.5822 9.60291C12.3058 10.2702 11.9007 10.8765 11.39 11.3872C10.8793 11.898 10.2729 12.3031 9.60566 12.5795C8.93837 12.8559 8.22317 12.9981 7.5009 12.9981C6.77863 12.9981 6.06343 12.8559 5.39614 12.5795C4.72885 12.3031 4.12253 11.898 3.61181 11.3872C3.10109 10.8765 2.69596 10.2702 2.41956 9.60291C2.14316 8.93562 2.0009 8.22042 2.0009 7.49815C2.0009 6.03946 2.58036 4.64051 3.61181 3.60906C4.64326 2.57761 6.04221 1.99815 7.5009 1.99815C8.95959 1.99815 10.3585 2.57761 11.39 3.60906C12.4214 4.64051 13.0009 6.03946 13.0009 7.49815Z" fill="white" stroke="#A3A3A3" stroke-width="0.5"/>
</svg>
