<svg width="25" height="25" viewBox="0 0 25 25" fill="none" xmlns="http://www.w3.org/2000/svg">
<path d="M8.26998 22.4449C7.97706 22.1519 7.8125 21.7545 7.8125 21.3402C7.8125 20.9259 7.97706 20.5285 8.26998 20.2355L16.0044 12.5011L8.26998 4.76674C7.98536 4.47204 7.82787 4.07735 7.83143 3.66767C7.83499 3.25799 7.99931 2.86609 8.28901 2.57639C8.57872 2.28669 8.97061 2.12237 9.38029 2.11881C9.78997 2.11525 10.1847 2.27274 10.4794 2.55736L19.3184 11.3964C19.6113 11.6894 19.7759 12.0868 19.7759 12.5011C19.7759 12.9154 19.6113 13.3128 19.3184 13.6058L10.4794 22.4449C10.1863 22.7378 9.78899 22.9023 9.37467 22.9023C8.96035 22.9023 8.56299 22.7378 8.26998 22.4449Z" fill="#F37022"/>
</svg>
