<svg width="40" height="40" viewBox="0 0 40 40" fill="none" xmlns="http://www.w3.org/2000/svg">
<g clip-path="url(#clip0_10342_6335)">
<rect width="40" height="40" fill="white"/>
<path d="M40 19.68L32.2936 27.96L33.7761 20.9179L16.8807 19.86L16.8807 19.41L33.7359 18.2666L32.2936 11.49L40 19.68Z" fill="#656565"/>
<path d="M25.7322 21.4644L25.7325 21.4628L27.3347 21.7255C27.233 22.3224 27.091 22.9087 26.911 23.481C26.08 26.1226 24.4367 28.4655 22.185 30.1754C19.4454 32.2557 16.0067 33.2459 12.5556 32.948C9.10448 32.6502 5.89484 31.0864 3.56752 28.5689C1.24021 26.0513 -0.033509 22.7652 0.000670802 19.3668C0.0348583 15.9683 1.37444 12.7076 3.75193 10.2355C6.12944 7.76353 9.36991 6.26216 12.8264 6.03122C16.2828 5.80028 19.7009 6.85676 22.3981 8.98971C24.615 10.7428 26.2109 13.1172 26.9885 15.7743C27.1569 16.3496 27.287 16.9382 27.3766 17.5366L27.3768 17.5377L25.7696 17.7693C25.3255 14.8037 23.7574 12.1115 21.3786 10.2304C18.9998 8.34918 15.9852 7.41741 12.9367 7.62109C9.8883 7.82477 7.03033 9.14891 4.93347 11.3291C2.83661 13.5094 1.65516 16.3852 1.62501 19.3825C1.59486 22.3798 2.71823 25.278 4.77083 27.4984C6.82342 29.7188 9.6542 31.098 12.6979 31.3606C15.7417 31.6233 18.7744 30.75 21.1907 28.9153C23.6064 27.0809 25.2282 24.4202 25.7322 21.4644Z" fill="#656565"/>
<path d="M21.7511 18.3749C21.6419 17.6457 21.4281 16.942 21.1209 16.2826C20.6158 15.1986 19.8581 14.2344 18.8966 13.4741C17.3502 12.2512 15.3905 11.6455 13.4088 11.7779C11.4271 11.9103 9.56926 12.7711 8.20616 14.1884C6.84306 15.6057 6.07503 17.4752 6.05543 19.4236C6.03583 21.3721 6.7661 23.2561 8.10042 24.6995C9.43475 26.1429 11.275 27.0395 13.2536 27.2102C15.2322 27.3809 17.2037 26.8133 18.7744 25.6206C19.751 24.879 20.528 23.9297 21.0548 22.8557C21.3752 22.2024 21.6031 21.5029 21.7269 20.776L20.2672 20.5366C20.2534 20.6177 20.238 20.6984 20.221 20.7786C19.9111 22.2428 19.0783 23.5538 17.8685 24.4725C16.5925 25.4415 14.9908 25.9027 13.3833 25.764C11.7758 25.6253 10.2808 24.8968 9.19671 23.7242C8.11267 22.5515 7.51938 21.0209 7.53531 19.4379C7.55123 17.855 8.17519 16.3361 9.28261 15.1847C10.39 14.0333 11.8994 13.3339 13.5094 13.2264C15.1194 13.1188 16.7115 13.6109 17.9678 14.6044C19.1589 15.5463 19.9651 16.8732 20.2455 18.3431C20.2609 18.4236 20.2747 18.5046 20.2868 18.586L21.7511 18.3749Z" fill="#656565"/>
<path d="M11.3761 19.5C11.3761 20.7923 12.4441 21.84 13.7615 21.84C15.0788 21.84 16.1468 20.7923 16.1468 19.5C16.1468 18.2077 15.0788 17.16 13.7615 17.16C12.4441 17.16 11.3761 18.2076 11.3761 19.5Z" fill="#656565"/>
</g>
<defs>
<clipPath id="clip0_10342_6335">
<rect width="40" height="40" fill="white"/>
</clipPath>
</defs>
</svg>
