<svg width="39" height="35" viewBox="0 0 39 35" fill="none" xmlns="http://www.w3.org/2000/svg">
<path d="M25.4585 10.959L25.578 11.1879L25.8338 11.223L37.4581 12.8196C37.4583 12.8197 37.4584 12.8197 37.4586 12.8197C38.0144 12.898 38.3437 13.3659 38.2704 13.8148L38.2704 13.8148L38.2695 13.8206C38.2415 14.0058 38.1484 14.1813 37.9985 14.3203C37.9984 14.3203 37.9984 14.3204 37.9983 14.3204L29.5878 22.07L29.3856 22.2564L29.4347 22.527L31.4219 33.471L31.422 33.4714C31.5044 33.9228 31.186 34.3958 30.6384 34.485L30.6377 34.4851C30.4227 34.5205 30.2004 34.4872 30.014 34.3934L30.0118 34.3923L19.6131 29.2253L19.3906 29.1148L19.1681 29.2253L8.76947 34.3923L8.76871 34.3926C8.60745 34.4731 8.42355 34.5101 8.23846 34.4976C8.05339 34.4852 7.87805 34.424 7.73214 34.3238C7.58645 34.2238 7.47717 34.09 7.4128 33.9401C7.34857 33.7906 7.33044 33.6287 7.35918 33.4717L7.35931 33.471L9.34655 22.527L9.39569 22.2564L9.1934 22.07L0.781975 14.3196L0.781942 14.3195C0.600937 14.1528 0.503243 13.9312 0.50008 13.7055C0.496922 13.4801 0.588069 13.2569 0.763388 13.0863C0.910338 12.9448 1.1047 12.8491 1.32053 12.82L1.32167 12.8198L12.9475 11.223L13.2032 11.1879L13.3227 10.959L18.5184 1.00412C18.5186 1.00376 18.5188 1.0034 18.519 1.00304C18.7504 0.567232 19.3356 0.365545 19.8294 0.595932L19.83 0.596195C20.0223 0.685615 20.1721 0.829974 20.2613 1.0012L20.2615 1.00165L25.4585 10.959Z" stroke="#BEBEBE"/>
</svg>
