<svg width="16" height="16" viewBox="0 0 16 16" fill="none" xmlns="http://www.w3.org/2000/svg">
<path fill-rule="evenodd" clip-rule="evenodd" d="M4.71778 3.29245L10.5643 2.71443C10.8207 2.81698 11.1117 2.69227 11.2142 2.43588C11.3168 2.17949 11.1921 1.88851 10.9357 1.78595C8.26356 0.717101 4.97234 1.29285 3.00288 3.462L4.71778 3.29245C4.71774 3.29248 4.71782 3.29243 4.71778 3.29245ZM10.5643 2.71443C8.64567 1.94698 6.38273 2.16817 4.71778 3.29245L10.5643 2.71443Z" fill="#6ac259"/>
<path d="M4.71778 3.29245L3.00288 3.462C2.04777 4.5135 1.44865 5.83961 1.29098 7.25137C1.13331 8.66316 1.42507 10.0887 2.12472 11.325C2.82438 12.5614 3.89625 13.5454 5.18772 14.1371C6.47915 14.7288 7.92433 14.898 9.3175 14.6206C12.2031 14.0467 14.2099 11.5002 14.7403 8.84825C14.7944 8.57747 14.6188 8.31405 14.348 8.2599C14.0773 8.20574 13.8138 8.38135 13.7597 8.65213C13.2901 11.0002 11.5269 13.1616 9.12246 13.6398C7.93565 13.8761 6.70439 13.7321 5.60425 13.228C4.5041 12.724 3.59103 11.8857 2.99503 10.8325C2.39903 9.77935 2.15049 8.56499 2.2848 7.36236C2.41911 6.15972 2.92943 5.03011 3.74308 4.13438C4.03462 3.81327 4.3627 3.53224 4.71778 3.29245Z" fill="#6ac259"/>
<path d="M14.6174 4.08928C14.8047 3.88637 14.7921 3.57004 14.5891 3.38274C14.3862 3.19544 14.0699 3.20809 13.8826 3.411L8.23558 9.52861L6.10355 7.39659C5.90829 7.20133 5.59171 7.20133 5.39645 7.39659C5.20118 7.59185 5.20118 7.90843 5.39645 8.10369L7.89645 10.6037C7.99267 10.6999 8.12395 10.7528 8.25999 10.75C8.39604 10.7473 8.52511 10.6893 8.6174 10.5893L14.6174 4.08928Z" fill="#6ac259"/>
</svg>
