<svg width="12" height="12" viewBox="0 0 12 12" fill="none" xmlns="http://www.w3.org/2000/svg">
<path d="M6 0.75V1.33333M6 10.6667V11.25M11.25 6H10.6667M1.33333 6H0.75M9.71233 9.71233L9.29992 9.29992M2.70008 2.70008L2.28767 2.28767M9.71233 2.28767L9.29992 2.70008M2.70008 9.29992L2.28767 9.71233M8.33333 6C8.33333 6.61884 8.0875 7.21233 7.64992 7.64992C7.21233 8.0875 6.61884 8.33333 6 8.33333C5.38116 8.33333 4.78767 8.0875 4.35008 7.64992C3.9125 7.21233 3.66667 6.61884 3.66667 6C3.66667 5.38116 3.9125 4.78767 4.35008 4.35008C4.78767 3.9125 5.38116 3.66667 6 3.66667C6.61884 3.66667 7.21233 3.9125 7.64992 4.35008C8.0875 4.78767 8.33333 5.38116 8.33333 6V6Z" stroke="#A2A2A2" stroke-linecap="round" stroke-linejoin="round"/>
</svg>
