<svg width="16" height="16" viewBox="0 0 16 16" fill="none" xmlns="http://www.w3.org/2000/svg">
<g clip-path="url(#clip0_9609_47105)">
<path d="M15.184 8.22703L7.75 0.793032C7.65736 0.699882 7.54716 0.626031 7.42579 0.575754C7.30442 0.525477 7.17428 0.499771 7.04291 0.500126H2C1.60231 0.500581 1.22105 0.658762 0.939842 0.939968C0.658636 1.22117 0.500455 1.60244 0.5 2.00013V7.03381C0.500219 7.17036 0.528298 7.30542 0.58252 7.43074C0.636743 7.55605 0.715966 7.66899 0.815344 7.76263L8.7235 15.1915C8.86206 15.3225 9.04562 15.3954 9.23631 15.395C9.24563 15.395 9.255 15.3948 9.26444 15.3944C9.36358 15.3911 9.46107 15.3681 9.55117 15.3265C9.64128 15.285 9.72218 15.226 9.78913 15.1528L15.2057 9.26509C15.3371 9.12289 15.4082 8.93528 15.4042 8.74169C15.4002 8.5481 15.3212 8.36362 15.184 8.22703ZM9.22409 14.2898L1.5 7.03381V2.00013C1.50016 1.86757 1.55289 1.74048 1.64662 1.64675C1.74035 1.55301 1.86744 1.50028 2 1.50013H7.04291L14.3073 8.76456L9.22409 14.2898Z" fill="#626262"/>
<path d="M4.625 3.00012C4.30361 3.00012 3.98943 3.09543 3.7222 3.27398C3.45497 3.45254 3.24669 3.70633 3.1237 4.00326C3.0007 4.30019 2.96852 4.62692 3.03122 4.94214C3.09393 5.25736 3.24869 5.54691 3.47595 5.77417C3.70321 6.00143 3.99276 6.1562 4.30798 6.2189C4.6232 6.2816 4.94993 6.24942 5.24686 6.12643C5.54379 6.00343 5.79758 5.79515 5.97614 5.52792C6.1547 5.26069 6.25 4.94652 6.25 4.62512C6.24951 4.1943 6.07815 3.78125 5.77351 3.47661C5.46887 3.17197 5.05583 3.00061 4.625 3.00012ZM4.625 5.25012C4.50139 5.25012 4.38055 5.21347 4.27777 5.14479C4.17499 5.07611 4.09488 4.9785 4.04758 4.8643C4.00027 4.7501 3.98789 4.62443 4.01201 4.50319C4.03613 4.38195 4.09565 4.27059 4.18306 4.18318C4.27047 4.09577 4.38183 4.03625 4.50307 4.01213C4.62431 3.98802 4.74997 4.00039 4.86418 4.0477C4.97838 4.095 5.07599 4.17511 5.14467 4.27789C5.21335 4.38067 5.25 4.50151 5.25 4.62512C5.24981 4.79082 5.1839 4.94968 5.06673 5.06685C4.94956 5.18402 4.7907 5.24993 4.625 5.25012Z" fill="#626262"/>
</g>
<defs>
<clipPath id="clip0_9609_47105">
<rect width="16" height="16" fill="white"/>
</clipPath>
</defs>
</svg>
