<svg width="16" height="15" viewBox="0 0 16 15" fill="none" xmlns="http://www.w3.org/2000/svg">
<g clip-path="url(#clip0_10132_21380)">
<path d="M15.056 7.71273L7.68484 0.743353C7.59298 0.656025 7.48372 0.58679 7.36337 0.539655C7.24302 0.49252 7.11398 0.468421 6.98372 0.468753H1.98342C1.5891 0.46918 1.21105 0.617475 0.93222 0.881106C0.65339 1.14474 0.496545 1.50217 0.496094 1.875V6.59409C0.496311 6.7221 0.524153 6.84872 0.577917 6.9662C0.631681 7.08368 0.710236 7.18956 0.808773 7.27735L8.65011 14.2419C8.78751 14.3648 8.96952 14.433 9.15859 14.4327C9.16783 14.4327 9.17712 14.4325 9.18648 14.4322C9.28479 14.4291 9.38145 14.4074 9.47079 14.3685C9.56013 14.3296 9.64035 14.2742 9.70674 14.2056L15.0775 8.68591C15.2078 8.5526 15.2784 8.37671 15.2744 8.19522C15.2704 8.01373 15.1921 7.84078 15.056 7.71273ZM9.14648 13.3966L1.48764 6.59409V1.875C1.4878 1.75073 1.54008 1.63159 1.63303 1.54371C1.72597 1.45583 1.85198 1.4064 1.98342 1.40625H6.98372L14.1867 8.21666L9.14648 13.3966Z" fill="#626262"/>
<path d="M4.58588 2.8125C4.2672 2.8125 3.95568 2.90185 3.69071 3.06925C3.42573 3.23664 3.21921 3.47457 3.09726 3.75294C2.97531 4.03132 2.9434 4.33763 3.00557 4.63315C3.06774 4.92866 3.2212 5.20011 3.44654 5.41317C3.67188 5.62623 3.95898 5.77132 4.27154 5.8301C4.58409 5.88888 4.90807 5.85872 5.20249 5.74341C5.49691 5.6281 5.74855 5.43284 5.9256 5.18231C6.10265 4.93179 6.19715 4.63724 6.19715 4.33594C6.19667 3.93204 6.02675 3.54481 5.72469 3.25921C5.42262 2.97361 5.01307 2.81296 4.58588 2.8125ZM4.58588 4.92188C4.46331 4.92188 4.3435 4.88751 4.24158 4.82313C4.13967 4.75874 4.06024 4.66723 4.01333 4.56017C3.96643 4.4531 3.95416 4.33529 3.97807 4.22163C4.00198 4.10797 4.061 4.00356 4.14767 3.92162C4.23434 3.83967 4.34477 3.78387 4.46498 3.76126C4.58519 3.73865 4.7098 3.75025 4.82304 3.7946C4.93628 3.83895 5.03306 3.91405 5.10116 4.01041C5.16925 4.10677 5.2056 4.22005 5.2056 4.33594C5.20541 4.49128 5.14006 4.64021 5.02388 4.75006C4.9077 4.85991 4.75018 4.9217 4.58588 4.92188Z" fill="#626262"/>
</g>
<defs>
<clipPath id="clip0_10132_21380">
<rect width="15.8648" height="15" fill="white"/>
</clipPath>
</defs>
</svg>
