<svg width="20" height="20" viewBox="0 0 20 20" fill="none" xmlns="http://www.w3.org/2000/svg">
<path d="M18.0197 13.7805H17.4597L10.3797 5.06051L11.3397 3.88051C11.4397 3.76051 11.4197 3.56051 11.2997 3.46051C11.1797 3.36051 10.9797 3.38051 10.8797 3.50051L9.99969 4.58051L9.11969 3.50051C9.01969 3.38051 8.81969 3.36051 8.69969 3.46051C8.57969 3.56051 8.55969 3.76051 8.65969 3.88051L9.61969 5.06051L2.53969 13.7805H1.97969C1.81969 13.7805 1.67969 13.9205 1.67969 14.0805V16.3205C1.67969 16.4805 1.81969 16.6205 1.97969 16.6205H2.67969H3.41969H4.31969H8.19969H11.8397H15.6797H16.6197H17.2997H18.0397C18.1997 16.6205 18.3397 16.4805 18.3397 16.3205V14.0805C18.3197 13.9005 18.1797 13.7805 18.0197 13.7805ZM16.2797 14.0805V16.0205H15.8197L11.4397 7.32051L16.6597 13.7605H16.5797C16.4197 13.7805 16.2797 13.9005 16.2797 14.0805ZM8.47969 7.40051L4.11969 16.0205H3.69969V14.0805C3.69969 13.9205 3.55969 13.7805 3.39969 13.7805H3.29969L8.47969 7.40051ZM2.67969 16.0205H2.27969V14.3805H3.09969V16.0205H2.67969ZM8.47969 16.0205V14.0405C8.47969 13.2005 9.15969 12.5205 9.99969 12.5205C10.8397 12.5205 11.5197 13.2005 11.5197 14.0405V16.0205H8.47969ZM12.1197 16.0205V14.0405C12.1197 12.8805 11.1797 11.9205 9.99969 11.9205C8.81969 11.9205 7.87969 12.8605 7.87969 14.0405V16.0205H4.79969L9.97969 5.74051L15.1597 16.0205H12.1197ZM17.7197 16.0205H17.2797H16.8997V14.3805H17.7197V16.0205Z" fill="white"/>
</svg>
