<svg width="20" height="20" viewBox="0 0 20 20" fill="none" xmlns="http://www.w3.org/2000/svg">
<g clip-path="url(#clip0_11409_10833)">
<path d="M16.0747 4.16016H3.9253C1.76086 4.16016 0 6.16636 0 8.6323C0 10.7494 1.29793 12.5275 3.0348 12.9883L0.174609 15.3131C0.0770702 15.3924 0.0399999 15.5245 0.0820702 15.643C0.12414 15.7614 0.23625 15.8406 0.361952 15.8406H12.497C12.5652 15.8406 12.6314 15.8171 12.6844 15.7741L15.9689 13.1044H16.0748C18.2392 13.1044 20 11.0982 20 8.63226C20 6.16636 18.2391 4.16016 16.0747 4.16016ZM0.594061 8.6323C0.594061 6.49394 2.08843 4.75422 3.9253 4.75422H14.1214C12.9439 5.52711 12.1495 6.97597 12.1495 8.6323C12.1495 10.2886 12.9439 11.7375 14.1214 12.5103H3.9253C2.08843 12.5104 0.594061 10.7707 0.594061 8.6323ZM12.3915 15.2466H1.19824L3.8337 13.1044H3.92527H15.027L12.3915 15.2466ZM16.0747 12.5104C14.2378 12.5104 12.7435 10.7707 12.7435 8.63234C12.7435 6.49398 14.2378 4.75426 16.0747 4.75426C17.9115 4.75426 19.4059 6.49398 19.4059 8.63234C19.4059 10.7707 17.9115 12.5104 16.0747 12.5104Z" fill="#656565"/>
<path d="M16.0748 5.60254C14.6016 5.60254 13.4031 6.9616 13.4031 8.6321C13.4031 10.3026 14.6016 11.6616 16.0748 11.6616C17.5479 11.6616 18.7464 10.3026 18.7464 8.6321C18.7464 6.96164 17.5479 5.60254 16.0748 5.60254ZM16.0748 11.0676C14.9291 11.0676 13.9971 9.97507 13.9971 8.63214C13.9971 7.28922 14.9291 6.19664 16.0748 6.19664C17.2203 6.19664 18.1523 7.28922 18.1523 8.63214C18.1523 9.97507 17.2203 11.0676 16.0748 11.0676Z" fill="#656565"/>
<path d="M16.0746 6.97266C15.2581 6.97266 14.5939 7.71699 14.5939 8.63187C14.5939 9.54675 15.2581 10.291 16.0746 10.291C16.8911 10.291 17.5554 9.54675 17.5554 8.63187C17.5554 7.71699 16.8911 6.97266 16.0746 6.97266ZM16.0746 9.69695C15.5857 9.69695 15.1879 9.21918 15.1879 8.63183C15.1879 8.04449 15.5857 7.56668 16.0746 7.56668C16.5636 7.56668 16.9613 8.04445 16.9613 8.63183C16.9614 9.21914 16.5636 9.69695 16.0746 9.69695Z" fill="#656565"/>
</g>
<defs>
<clipPath id="clip0_11409_10833">
<rect width="20" height="20" fill="white"/>
</clipPath>
</defs>
</svg>
