<svg width="20" height="20" viewBox="0 0 20 20" fill="none" xmlns="http://www.w3.org/2000/svg">
<g clip-path="url(#clip0_11409_10819)">
<path d="M2.82452 5.625H17.1755C17.351 5.625 17.5103 5.69658 17.6256 5.81188C17.7409 5.9272 17.8125 6.08652 17.8125 6.26202V14.0505C17.8125 14.226 17.7409 14.3853 17.6256 14.5006C17.5103 14.6159 17.351 14.6875 17.1755 14.6875H2.82452C2.64902 14.6875 2.4897 14.6159 2.37438 14.5006C2.25908 14.3853 2.1875 14.226 2.1875 14.0505V6.26202C2.1875 6.08652 2.25908 5.9272 2.37438 5.81188C2.4897 5.69658 2.64902 5.625 2.82452 5.625ZM17.1755 6.25002H2.82452C2.82155 6.25002 2.81858 6.25147 2.81628 6.25378C2.81397 6.25608 2.81252 6.25905 2.81252 6.26202V14.0505C2.81252 14.0535 2.81397 14.0564 2.81628 14.0587C2.81858 14.0611 2.82155 14.0625 2.82452 14.0625H17.1755C17.1785 14.0625 17.1814 14.0611 17.1837 14.0587C17.1861 14.0564 17.1875 14.0535 17.1875 14.0505V6.26202C17.1875 6.25905 17.1861 6.25608 17.1837 6.25378C17.1814 6.25147 17.1785 6.25002 17.1755 6.25002Z" fill="#656565"/>
<path d="M9.0625 7.5H16.5625V8.12502H9.0625V7.5Z" fill="#656565"/>
<path d="M9.0625 9.6875H16.5625V10.3125H9.0625V9.6875Z" fill="#656565"/>
<path d="M9.0625 11.875H16.5625V12.5H9.0625V11.875Z" fill="#656565"/>
<path d="M5.83116 9.45938C6.03802 9.45938 6.22868 9.35345 6.36968 9.1822C6.52452 8.99412 6.62032 8.72978 6.62032 8.4338C6.62032 8.11673 6.59027 7.83688 6.47314 7.65732C6.37276 7.50342 6.17905 7.40821 5.83116 7.40821C5.48325 7.40821 5.28953 7.50342 5.18915 7.65732C5.07203 7.83687 5.04201 8.11673 5.04201 8.4338C5.04201 8.72979 5.1378 8.99413 5.29265 9.18221C5.43363 9.35345 5.62429 9.45938 5.83116 9.45938ZM6.85063 9.57771C6.59289 9.89076 6.23267 10.0844 5.83116 10.0844C5.42963 10.0844 5.06941 9.89076 4.81169 9.57772C4.56784 9.28153 4.41699 8.87682 4.41699 8.4338C4.41699 8.01189 4.46794 7.62268 4.6667 7.31796C4.88219 6.98757 5.23935 6.7832 5.83116 6.7832C6.42293 6.7832 6.78008 6.98757 6.99559 7.31796C7.19436 7.62267 7.24533 8.01188 7.24533 8.4338C7.24533 8.87681 7.09449 9.28152 6.85063 9.57771L6.85063 9.57771Z" fill="#656565"/>
<path d="M7.59821 12.4151C7.58901 11.8347 7.55221 11.4696 7.39528 11.2544C7.25813 11.0664 6.99156 10.9526 6.52257 10.8575C6.38573 10.9546 6.15694 11.0671 5.83112 11.0671C5.50528 11.0671 5.27645 10.9546 5.13962 10.8575C4.67568 10.9516 4.40971 11.0642 4.27127 11.2489C4.11445 11.4583 4.07524 11.8119 4.06476 12.3733L4.06433 12.3956C4.06385 12.4216 4.0634 12.4449 4.06317 12.5025C4.17176 12.6188 4.56716 12.9045 5.83111 12.9045C7.09531 12.9045 7.49061 12.6186 7.5991 12.5024C7.59901 12.4654 7.59886 12.4562 7.59871 12.4469L7.5982 12.4151H7.59821ZM7.89822 10.8882C8.15208 11.2363 8.20959 11.6984 8.22078 12.4054L8.22128 12.4372C8.22275 12.5277 8.2242 12.5819 8.2242 12.5995L8.18757 12.7447C8.18639 12.747 7.79528 13.5295 5.83111 13.5295C3.86689 13.5295 3.47579 12.747 3.47462 12.7447L3.43799 12.5995C3.43799 12.5854 3.43976 12.4916 3.44176 12.3858L3.44219 12.3635C3.4551 11.6714 3.51686 11.2176 3.77322 10.8754C4.03427 10.527 4.45377 10.3472 5.17288 10.2174L5.35462 10.1846L5.47074 10.3285C5.47099 10.3288 5.55913 10.4421 5.83112 10.4421C6.10307 10.4421 6.19121 10.3288 6.19146 10.3285L6.30759 10.1846L6.48932 10.2174C7.21695 10.3487 7.63795 10.5313 7.89823 10.8882L7.89822 10.8882Z" fill="#656565"/>
</g>
<defs>
<clipPath id="clip0_11409_10819">
<rect width="20" height="20" fill="white"/>
</clipPath>
</defs>
</svg>
