<svg width="20" height="20" viewBox="0 0 20 20" fill="none" xmlns="http://www.w3.org/2000/svg">
<path d="M13.2496 0H6.75043C4.01632 0 1.79199 2.22433 1.79199 4.95839V12.9808C1.79199 13.1328 1.91517 13.256 2.06717 13.256H4.39742L4.11118 15.9685C4.11118 15.9686 4.11118 15.9687 4.11118 15.9687C4.11073 15.9731 4.11068 15.9776 4.11043 15.982C4.11013 15.9871 4.10968 15.9922 4.10963 15.9973C4.10963 15.9973 4.10963 15.9973 4.10963 15.9974C4.10963 18.2044 5.90518 20 8.11225 20H11.8398C14.0468 20 15.8424 18.2044 15.8424 15.9974C15.8424 15.9973 15.8424 15.9973 15.8424 15.9972C15.8424 15.9923 15.8419 15.9873 15.8416 15.9824C15.8413 15.9778 15.8413 15.9732 15.8408 15.9687C15.8408 15.9686 15.8408 15.9686 15.8408 15.9685L15.5549 13.2593C15.5668 13.2608 15.5788 13.2619 15.5911 13.2619H17.9327C18.0846 13.2619 18.2078 13.1387 18.2078 12.9867V4.95839C18.2079 2.22433 15.9836 0 13.2496 0ZM13.2496 0.550354C13.3331 0.550354 13.416 0.552905 13.4984 0.557508C13.4622 2.45638 11.9073 3.99026 9.99996 3.99026C8.09259 3.99026 6.53774 2.45638 6.50162 0.557508C6.58397 0.552905 6.66692 0.550354 6.75043 0.550354H13.2496ZM17.6575 12.7116H15.5911C15.5587 12.7116 15.5278 12.7175 15.4989 12.7277L14.7895 6.00476C14.7736 5.85361 14.6379 5.74394 14.487 5.76C14.3359 5.77596 14.2263 5.9114 14.2422 6.06254L15.2917 16.0091C15.2853 17.9073 13.7395 19.4497 11.8398 19.4497H8.11225C6.21258 19.4497 4.66664 17.9073 4.66028 16.0091L5.70986 6.06254C5.72582 5.9114 5.6162 5.77596 5.46505 5.76C5.31385 5.74394 5.17847 5.85361 5.16251 6.00476L4.45505 12.7098C4.43999 12.7072 4.42463 12.7056 4.40882 12.7056H2.34235V4.95839C2.34235 2.80005 3.9017 0.999192 5.95292 0.6228C6.02326 2.79495 7.81101 4.54062 9.99996 4.54062C12.1889 4.54062 13.9767 2.79495 14.0471 0.6228C16.0983 0.999192 17.6576 2.80005 17.6576 4.95839V12.7116H17.6575Z" fill="#656565"/>
<path d="M11.2663 18.5537C11.4775 18.5537 11.6486 18.3825 11.6486 18.1714C11.6486 17.9602 11.4775 17.7891 11.2663 17.7891C11.0552 17.7891 10.884 17.9602 10.884 18.1714C10.884 18.3825 11.0552 18.5537 11.2663 18.5537Z" fill="#656565"/>
<path d="M9.97605 18.5537C10.1872 18.5537 10.3583 18.3825 10.3583 18.1714C10.3583 17.9602 10.1872 17.7891 9.97605 17.7891C9.76491 17.7891 9.59375 17.9602 9.59375 18.1714C9.59375 18.3825 9.76491 18.5537 9.97605 18.5537Z" fill="#656565"/>
<path d="M8.68576 18.5537C8.8969 18.5537 9.06806 18.3825 9.06806 18.1714C9.06806 17.9602 8.8969 17.7891 8.68576 17.7891C8.47463 17.7891 8.30347 17.9602 8.30347 18.1714C8.30347 18.3825 8.47463 18.5537 8.68576 18.5537Z" fill="#656565"/>
<path d="M12.107 8.68223L10.9921 8.52027L10.4935 7.50992C10.4007 7.3221 10.2094 7.20312 9.99998 7.20312C9.79044 7.20312 9.59917 7.32205 9.50646 7.50992L9.00789 8.52022L7.89287 8.68218C7.68554 8.71229 7.51333 8.85749 7.44859 9.05672C7.38385 9.25594 7.43783 9.47468 7.58783 9.62093L8.3947 10.4074L8.20412 11.518C8.1687 11.7245 8.2536 11.9332 8.42306 12.0563C8.51898 12.126 8.63255 12.1614 8.74662 12.1614C8.83423 12.1614 8.92218 12.1405 9.00269 12.0982L9.99998 11.5738L10.9972 12.0982C11.0777 12.1405 11.1656 12.1614 11.2532 12.1614C11.3673 12.1614 11.4809 12.126 11.5767 12.0563C11.7462 11.9332 11.8312 11.7245 11.7957 11.518L11.6053 10.4074L12.4121 9.62088C12.5621 9.47463 12.6161 9.25589 12.5513 9.05672C12.4865 8.85754 12.3143 8.71234 12.107 8.68223ZM11.0139 10.2154L11.2532 11.6112L9.99993 10.9521L8.74652 11.6112L8.98598 10.2154L7.97187 9.22693L9.37327 9.02339L9.99988 7.75358L10.6265 9.02339L12.0278 9.22693L11.0139 10.2154Z" fill="#656565"/>
</svg>
