<svg width="20" height="20" viewBox="0 0 20 20" fill="none" xmlns="http://www.w3.org/2000/svg">
<g clip-path="url(#clip0_11409_10969)">
<path d="M19.7963 6.56497L16.0556 2.8243C15.638 2.40672 15.0828 2.17676 14.4922 2.17676H5.5077C4.91715 2.17676 4.36187 2.40676 3.94433 2.8243L0.203702 6.56497C-0.0679005 6.83665 -0.0679005 7.27864 0.203702 7.55028L2.2207 9.56728C2.35234 9.69892 2.52726 9.77138 2.71339 9.77138C2.89953 9.77138 3.07445 9.69892 3.20609 9.56728L4.40699 8.36638V16.9444C4.40699 17.4292 4.80145 17.8237 5.28629 17.8237H14.7138C15.1986 17.8237 15.5931 17.4292 15.5931 16.9444V8.36638L16.794 9.56728C16.9256 9.69892 17.1005 9.77138 17.2867 9.77138C17.4728 9.77138 17.6477 9.69892 17.7794 9.56728L19.7964 7.55024C20.0679 7.2786 20.0679 6.83661 19.7963 6.56497ZM11.3864 2.80832C11.2424 3.44094 10.6757 3.91465 10.0001 3.91465C9.32446 3.91465 8.75778 3.44094 8.61372 2.80832H11.3864ZM7.97071 2.80832C8.12309 3.79133 8.97505 4.54625 10.0001 4.54625C11.0252 4.54625 11.8772 3.79137 12.0295 2.80832H12.5199C12.3638 4.06032 11.2937 5.03262 10.0002 5.03262C8.70661 5.03262 7.63649 4.06039 7.48047 2.80832H7.97071ZM14.9614 16.9444C14.9614 17.081 14.8503 17.1921 14.7137 17.1921H5.28625C5.14965 17.1921 5.03856 17.0809 5.03856 16.9444V14.9545H14.9614V16.9444ZM14.9614 14.3229H5.03856V13.0476H14.9614V14.3229ZM14.9614 12.416H5.03856V11.4535H14.9614V12.416ZM14.9614 10.8219H5.03856V9.54662H14.9614V10.8219ZM19.3497 7.10368L17.3327 9.12068C17.3169 9.13642 17.2989 9.13974 17.2866 9.13974C17.2744 9.13974 17.2563 9.13642 17.2406 9.12068L15.8873 7.76743C15.7316 7.61177 15.4996 7.5656 15.2962 7.64985C15.0929 7.73407 14.9614 7.93079 14.9614 8.15091V8.91497H5.03856V8.15091C5.03856 7.93079 4.90715 7.73411 4.70375 7.64985C4.63621 7.62188 4.56559 7.60829 4.49562 7.60829C4.35476 7.60829 4.21672 7.66341 4.11265 7.76739L2.75941 9.12064C2.74367 9.13638 2.72562 9.1397 2.71336 9.1397C2.70109 9.1397 2.68304 9.13638 2.6673 9.12064L0.650304 7.10364C0.624874 7.07821 0.624874 7.03688 0.650304 7.01149L4.39098 3.27086C4.68926 2.97258 5.08586 2.80828 5.5077 2.80828H6.84422C7.00325 4.40942 8.35778 5.66419 10.0001 5.66419C11.6424 5.66419 12.997 4.40946 13.156 2.80828H14.4922C14.9141 2.80828 15.3107 2.97254 15.609 3.27086L19.3497 7.01149C19.3751 7.03692 19.3751 7.07829 19.3497 7.10368Z" fill="#656565"/>
</g>
<defs>
<clipPath id="clip0_11409_10969">
<rect width="20" height="20" fill="white"/>
</clipPath>
</defs>
</svg>
